<svg width="66" height="67" viewBox="0 0 66 67" fill="none" xmlns="http://www.w3.org/2000/svg">
<g filter="url(#filter0_i_30_1103)">
<circle cx="32.7326" cy="33.6728" r="32.7326" fill="#4C4848"/>
</g>
<path fill-rule="evenodd" clip-rule="evenodd" d="M44.2127 20.2615H45.6902C47.3155 20.2615 48.6453 21.5913 48.6453 23.2166V46.8568C48.6453 48.4821 47.3155 49.8118 45.6902 49.8118H22.05C20.4247 49.8118 19.095 48.4821 19.095 46.8568V23.2166C19.095 21.5913 20.4247 20.2615 22.05 20.2615H23.5275V17.3065H26.4826V20.2615H41.2577V17.3065H44.2127V20.2615ZM22.05 46.8568H45.6902V30.6041H22.05V46.8568ZM22.05 27.6491H45.6902V23.2166H22.05V27.6491Z" fill="url(#paint0_angular_30_1103)"/>
<defs>
<filter id="filter0_i_30_1103" x="0" y="-3.05981" width="65.4653" height="69.4652" filterUnits="userSpaceOnUse" color-interpolation-filters="sRGB">
<feFlood flood-opacity="0" result="BackgroundImageFix"/>
<feBlend mode="normal" in="SourceGraphic" in2="BackgroundImageFix" result="shape"/>
<feColorMatrix in="SourceAlpha" type="matrix" values="0 0 0 0 0 0 0 0 0 0 0 0 0 0 0 0 0 0 127 0" result="hardAlpha"/>
<feMorphology radius="0.01" operator="erode" in="SourceAlpha" result="effect1_innerShadow_30_1103"/>
<feOffset dy="-4"/>
<feGaussianBlur stdDeviation="2.5"/>
<feComposite in2="hardAlpha" operator="arithmetic" k2="-1" k3="1"/>
<feColorMatrix type="matrix" values="0 0 0 0 0.220833 0 0 0 0 0.220833 0 0 0 0 0.220833 0 0 0 1 0"/>
<feBlend mode="normal" in2="shape" result="effect1_innerShadow_30_1103"/>
</filter>
<radialGradient id="paint0_angular_30_1103" cx="0" cy="0" r="1" gradientUnits="userSpaceOnUse" gradientTransform="translate(34.0974 32.309) rotate(180) scale(20.4579)">
<stop offset="0.25" stop-color="#EA4335"/>
<stop offset="0.25" stop-color="#FBBC04"/>
<stop offset="0.499491" stop-color="#FBBC04"/>
<stop offset="0.49974" stop-color="#0F9D58"/>
<stop offset="0.750094" stop-color="#0F9D58"/>
<stop offset="0.750153" stop-color="#4285F4"/>
<stop offset="0.999812" stop-color="#4285F4"/>
<stop offset="0.9999" stop-color="#EA4335"/>
</radialGradient>
</defs>
</svg>
