<svg width="31" height="14" viewBox="0 0 31 14" fill="none" xmlns="http://www.w3.org/2000/svg">
<path d="M2.89742 0.36366C2.75426 0.247475 2.58586 0.156645 2.40183 0.0963554C2.2178 0.0360651 2.02175 0.00749493 1.82487 0.0122786C1.62798 0.0170622 1.43412 0.0551043 1.25436 0.124233C1.07459 0.193362 0.912441 0.292223 0.777162 0.415173C0.641882 0.538123 0.536124 0.682754 0.465925 0.840807C0.395726 0.998859 0.362462 1.16724 0.368031 1.33633C0.373601 1.50543 0.417895 1.67192 0.498385 1.82631C0.578875 1.98071 0.693984 2.11997 0.83714 2.23616L14.3324 13.1827C14.6108 13.4087 14.9794 13.5347 15.3625 13.5347C15.7457 13.5347 16.1143 13.4087 16.3927 13.1827L29.8895 2.23616C30.0357 2.12074 30.1539 1.9815 30.237 1.82654C30.3201 1.67159 30.3665 1.50399 30.3736 1.33349C30.3806 1.16299 30.3482 0.992981 30.2781 0.833346C30.208 0.673713 30.1016 0.527631 29.9653 0.403586C29.8289 0.279543 29.6652 0.180009 29.4836 0.110767C29.3021 0.0415258 29.1063 0.00395775 28.9077 0.000243187C28.7091 -0.00347233 28.5116 0.026741 28.3267 0.0891285C28.1418 0.151516 27.9732 0.244833 27.8307 0.36366L15.3625 10.4756L2.89742 0.36366Z" fill="#868686"/>
</svg>
