<svg width="66" height="66" viewBox="0 0 66 66" fill="none" xmlns="http://www.w3.org/2000/svg">
<g filter="url(#filter0_i_30_865)">
<ellipse cx="32.735" cy="32.7915" rx="32.735" ry="32.4834" fill="#E5E5E5"/>
</g>
<path fill-rule="evenodd" clip-rule="evenodd" d="M44.216 19.4823H45.6936C47.319 19.4823 48.6489 20.802 48.6489 22.4149V45.875C48.6489 47.4879 47.319 48.8076 45.6936 48.8076H22.0517C20.4263 48.8076 19.0964 47.4879 19.0964 45.875V22.4149C19.0964 20.802 20.4263 19.4823 22.0517 19.4823H23.5293V16.5498H26.4846V19.4823H41.2608V16.5498H44.216V19.4823ZM22.0517 45.875H45.6936V29.7462H22.0517V45.875ZM22.0517 26.8137H45.6936V22.4149H22.0517V26.8137Z" fill="url(#paint0_angular_30_865)"/>
<defs>
<filter id="filter0_i_30_865" x="0" y="-14.6919" width="65.47" height="79.9667" filterUnits="userSpaceOnUse" color-interpolation-filters="sRGB">
<feFlood flood-opacity="0" result="BackgroundImageFix"/>
<feBlend mode="normal" in="SourceGraphic" in2="BackgroundImageFix" result="shape"/>
<feColorMatrix in="SourceAlpha" type="matrix" values="0 0 0 0 0 0 0 0 0 0 0 0 0 0 0 0 0 0 127 0" result="hardAlpha"/>
<feMorphology radius="0.01" operator="erode" in="SourceAlpha" result="effect1_innerShadow_30_865"/>
<feOffset dy="-15"/>
<feGaussianBlur stdDeviation="10"/>
<feComposite in2="hardAlpha" operator="arithmetic" k2="-1" k3="1"/>
<feColorMatrix type="matrix" values="0 0 0 0 0 0 0 0 0 0 0 0 0 0 0 0 0 0 0.28 0"/>
<feBlend mode="normal" in2="shape" result="effect1_innerShadow_30_865"/>
</filter>
<radialGradient id="paint0_angular_30_865" cx="0" cy="0" r="1" gradientUnits="userSpaceOnUse" gradientTransform="translate(34.1 31.438) rotate(180) scale(20.4594 20.3021)">
<stop offset="0.25" stop-color="#EA4335"/>
<stop offset="0.25" stop-color="#FBBC04"/>
<stop offset="0.499491" stop-color="#FBBC04"/>
<stop offset="0.49974" stop-color="#0F9D58"/>
<stop offset="0.750094" stop-color="#0F9D58"/>
<stop offset="0.750153" stop-color="#4285F4"/>
<stop offset="0.999812" stop-color="#4285F4"/>
<stop offset="0.9999" stop-color="#EA4335"/>
</radialGradient>
</defs>
</svg>
