<svg width="66" height="66" viewBox="0 0 66 66" fill="none" xmlns="http://www.w3.org/2000/svg">
<g filter="url(#filter0_i_30_859)">
<ellipse cx="32.735" cy="33.3747" rx="32.735" ry="32.4834" fill="#E5E5E5"/>
</g>
<path d="M33.9887 17.6484C34.3212 17.9784 34.508 18.4259 34.508 18.8926V20.6521C34.508 21.1187 34.3212 21.5663 33.9887 21.8963C33.6561 22.2262 33.2051 22.4116 32.7349 22.4116C32.2646 22.4116 31.8136 22.2262 31.4811 21.8963C31.1485 21.5663 30.9617 21.1187 30.9617 20.6521V18.8926C30.9617 18.4259 31.1485 17.9784 31.4811 17.6484C31.8136 17.3184 32.2646 17.1331 32.7349 17.1331C33.2051 17.1331 33.6561 17.3184 33.9887 17.6484Z" fill="url(#paint0_angular_30_859)"/>
<path d="M21.2158 21.5535C21.6807 21.5495 22.1286 21.7269 22.463 22.0474L24.2362 23.8069C24.5592 24.1387 24.7379 24.5832 24.7339 25.0445C24.7298 25.5059 24.5433 25.9472 24.2146 26.2734C23.8858 26.5996 23.4411 26.7847 22.9762 26.7887C22.5113 26.7927 22.0634 26.6154 21.729 26.2949L19.9558 24.5353C19.6328 24.2035 19.4541 23.759 19.4581 23.2977C19.4622 22.8364 19.6487 22.395 19.9774 22.0688C20.3062 21.7426 20.7509 21.5575 21.2158 21.5535Z" fill="url(#paint1_angular_30_859)"/>
<path d="M46.0116 23.2977C46.0157 23.759 45.8369 24.2035 45.5139 24.5353L43.7408 26.2949C43.4064 26.6154 42.9585 26.7927 42.4936 26.7887C42.0286 26.7847 41.5839 26.5996 41.2552 26.2734C40.9264 25.9472 40.7399 25.5059 40.7359 25.0445C40.7318 24.5832 40.9106 24.1387 41.2336 23.8069L43.0067 22.0474C43.3411 21.7269 43.789 21.5495 44.2539 21.5535C44.7189 21.5575 45.1636 21.7426 45.4923 22.0688C45.8211 22.395 46.0076 22.8364 46.0116 23.2977Z" fill="url(#paint2_angular_30_859)"/>
<path d="M26.3899 26.2537C28.2245 24.9012 30.4493 24.171 32.7349 24.1711C35.0204 24.171 37.2452 24.9012 39.0799 26.2537C40.9146 27.6061 42.2615 29.5089 42.9214 31.6803C43.5812 33.8517 43.5189 36.1762 42.7435 38.3097C41.9681 40.4431 40.521 42.2721 38.6164 43.5258H26.8534C24.9487 42.2721 23.5016 40.4431 22.7263 38.3097C21.9509 36.1762 21.8885 33.8517 22.5484 31.6803C23.2082 29.5089 24.5552 27.6061 26.3899 26.2537Z" fill="url(#paint3_angular_30_859)"/>
<path d="M27.4154 47.0448V45.2853H38.0543V47.0448C38.0543 48.4448 37.4939 49.7874 36.4963 50.7773C35.4987 51.7672 34.1457 52.3234 32.7349 52.3234C31.3241 52.3234 29.9711 51.7672 28.9735 50.7773C27.9759 49.7874 27.4154 48.4448 27.4154 47.0448Z" fill="url(#paint4_angular_30_859)"/>
<path d="M15.5228 33.484C15.8553 33.1541 16.3063 32.9687 16.7766 32.9687H18.5497C19.02 32.9687 19.471 33.1541 19.8035 33.484C20.136 33.814 20.3229 34.2616 20.3229 34.7282C20.3229 35.1949 20.136 35.6424 19.8035 35.9724C19.471 36.3023 19.02 36.4877 18.5497 36.4877H16.7766C16.3063 36.4877 15.8553 36.3023 15.5228 35.9724C15.1902 35.6424 15.0034 35.1949 15.0034 34.7282C15.0034 34.2616 15.1902 33.814 15.5228 33.484Z" fill="url(#paint5_angular_30_859)"/>
<path d="M45.6662 33.484C45.9988 33.1541 46.4498 32.9687 46.92 32.9687H48.6932C49.1635 32.9687 49.6145 33.1541 49.947 33.484C50.2795 33.814 50.4663 34.2616 50.4663 34.7282C50.4663 35.1949 50.2795 35.6424 49.947 35.9724C49.6145 36.3023 49.1635 36.4877 48.6932 36.4877H46.92C46.4498 36.4877 45.9988 36.3023 45.6662 35.9724C45.3337 35.6424 45.1469 35.1949 45.1469 34.7282C45.1469 34.2616 45.3337 33.814 45.6662 33.484Z" fill="url(#paint6_angular_30_859)"/>
<defs>
<filter id="filter0_i_30_859" x="0" y="-14.1086" width="65.47" height="79.9667" filterUnits="userSpaceOnUse" color-interpolation-filters="sRGB">
<feFlood flood-opacity="0" result="BackgroundImageFix"/>
<feBlend mode="normal" in="SourceGraphic" in2="BackgroundImageFix" result="shape"/>
<feColorMatrix in="SourceAlpha" type="matrix" values="0 0 0 0 0 0 0 0 0 0 0 0 0 0 0 0 0 0 127 0" result="hardAlpha"/>
<feMorphology radius="0.01" operator="erode" in="SourceAlpha" result="effect1_innerShadow_30_859"/>
<feOffset dy="-15"/>
<feGaussianBlur stdDeviation="10"/>
<feComposite in2="hardAlpha" operator="arithmetic" k2="-1" k3="1"/>
<feColorMatrix type="matrix" values="0 0 0 0 0 0 0 0 0 0 0 0 0 0 0 0 0 0 0.28 0"/>
<feBlend mode="normal" in2="shape" result="effect1_innerShadow_30_859"/>
</filter>
<radialGradient id="paint0_angular_30_859" cx="0" cy="0" r="1" gradientUnits="userSpaceOnUse" gradientTransform="translate(32.7349 34.7282) rotate(180) scale(17.7315 17.5951)">
<stop offset="0.25" stop-color="#EA4335"/>
<stop offset="0.25" stop-color="#FBBC04"/>
<stop offset="0.499491" stop-color="#FBBC04"/>
<stop offset="0.49974" stop-color="#0F9D58"/>
<stop offset="0.750094" stop-color="#0F9D58"/>
<stop offset="0.750153" stop-color="#4285F4"/>
<stop offset="0.999812" stop-color="#4285F4"/>
<stop offset="0.9999" stop-color="#EA4335"/>
</radialGradient>
<radialGradient id="paint1_angular_30_859" cx="0" cy="0" r="1" gradientUnits="userSpaceOnUse" gradientTransform="translate(32.7349 34.7282) rotate(180) scale(17.7315 17.5951)">
<stop offset="0.25" stop-color="#EA4335"/>
<stop offset="0.25" stop-color="#FBBC04"/>
<stop offset="0.499491" stop-color="#FBBC04"/>
<stop offset="0.49974" stop-color="#0F9D58"/>
<stop offset="0.750094" stop-color="#0F9D58"/>
<stop offset="0.750153" stop-color="#4285F4"/>
<stop offset="0.999812" stop-color="#4285F4"/>
<stop offset="0.9999" stop-color="#EA4335"/>
</radialGradient>
<radialGradient id="paint2_angular_30_859" cx="0" cy="0" r="1" gradientUnits="userSpaceOnUse" gradientTransform="translate(32.7349 34.7282) rotate(180) scale(17.7315 17.5951)">
<stop offset="0.25" stop-color="#EA4335"/>
<stop offset="0.25" stop-color="#FBBC04"/>
<stop offset="0.499491" stop-color="#FBBC04"/>
<stop offset="0.49974" stop-color="#0F9D58"/>
<stop offset="0.750094" stop-color="#0F9D58"/>
<stop offset="0.750153" stop-color="#4285F4"/>
<stop offset="0.999812" stop-color="#4285F4"/>
<stop offset="0.9999" stop-color="#EA4335"/>
</radialGradient>
<radialGradient id="paint3_angular_30_859" cx="0" cy="0" r="1" gradientUnits="userSpaceOnUse" gradientTransform="translate(32.7349 34.7282) rotate(180) scale(17.7315 17.5951)">
<stop offset="0.25" stop-color="#EA4335"/>
<stop offset="0.25" stop-color="#FBBC04"/>
<stop offset="0.499491" stop-color="#FBBC04"/>
<stop offset="0.49974" stop-color="#0F9D58"/>
<stop offset="0.750094" stop-color="#0F9D58"/>
<stop offset="0.750153" stop-color="#4285F4"/>
<stop offset="0.999812" stop-color="#4285F4"/>
<stop offset="0.9999" stop-color="#EA4335"/>
</radialGradient>
<radialGradient id="paint4_angular_30_859" cx="0" cy="0" r="1" gradientUnits="userSpaceOnUse" gradientTransform="translate(32.7349 34.7282) rotate(180) scale(17.7315 17.5951)">
<stop offset="0.25" stop-color="#EA4335"/>
<stop offset="0.25" stop-color="#FBBC04"/>
<stop offset="0.499491" stop-color="#FBBC04"/>
<stop offset="0.49974" stop-color="#0F9D58"/>
<stop offset="0.750094" stop-color="#0F9D58"/>
<stop offset="0.750153" stop-color="#4285F4"/>
<stop offset="0.999812" stop-color="#4285F4"/>
<stop offset="0.9999" stop-color="#EA4335"/>
</radialGradient>
<radialGradient id="paint5_angular_30_859" cx="0" cy="0" r="1" gradientUnits="userSpaceOnUse" gradientTransform="translate(32.7349 34.7282) rotate(180) scale(17.7315 17.5951)">
<stop offset="0.25" stop-color="#EA4335"/>
<stop offset="0.25" stop-color="#FBBC04"/>
<stop offset="0.499491" stop-color="#FBBC04"/>
<stop offset="0.49974" stop-color="#0F9D58"/>
<stop offset="0.750094" stop-color="#0F9D58"/>
<stop offset="0.750153" stop-color="#4285F4"/>
<stop offset="0.999812" stop-color="#4285F4"/>
<stop offset="0.9999" stop-color="#EA4335"/>
</radialGradient>
<radialGradient id="paint6_angular_30_859" cx="0" cy="0" r="1" gradientUnits="userSpaceOnUse" gradientTransform="translate(32.7349 34.7282) rotate(180) scale(17.7315 17.5951)">
<stop offset="0.25" stop-color="#EA4335"/>
<stop offset="0.25" stop-color="#FBBC04"/>
<stop offset="0.499491" stop-color="#FBBC04"/>
<stop offset="0.49974" stop-color="#0F9D58"/>
<stop offset="0.750094" stop-color="#0F9D58"/>
<stop offset="0.750153" stop-color="#4285F4"/>
<stop offset="0.999812" stop-color="#4285F4"/>
<stop offset="0.9999" stop-color="#EA4335"/>
</radialGradient>
</defs>
</svg>
