<svg width="36" height="36" viewBox="0 0 36 36" fill="none" xmlns="http://www.w3.org/2000/svg">
<path d="M18.9887 0.648407C19.3212 0.97838 19.508 1.42592 19.508 1.89257V3.65209C19.508 4.11874 19.3212 4.56628 18.9887 4.89625C18.6561 5.22622 18.2051 5.4116 17.7349 5.4116C17.2646 5.4116 16.8136 5.22622 16.4811 4.89625C16.1485 4.56628 15.9617 4.11874 15.9617 3.65209V1.89257C15.9617 1.42592 16.1485 0.97838 16.4811 0.648407C16.8136 0.318433 17.2646 0.133057 17.7349 0.133057C18.2051 0.133057 18.6561 0.318433 18.9887 0.648407Z" fill="url(#paint0_angular_30_861)"/>
<path d="M6.21581 4.55353C6.68072 4.54952 7.12862 4.72687 7.46304 5.04738L9.23619 6.8069C9.55918 7.13875 9.7379 7.5832 9.73386 8.04454C9.72983 8.50588 9.54334 8.94719 9.21459 9.27342C8.88583 9.59965 8.44111 9.78469 7.97619 9.7887C7.51128 9.79271 7.06338 9.61536 6.72896 9.29485L4.95581 7.53534C4.63282 7.20349 4.4541 6.75903 4.45814 6.29769C4.46218 5.83635 4.64866 5.39504 4.97741 5.06882C5.30617 4.74259 5.7509 4.55754 6.21581 4.55353Z" fill="url(#paint1_angular_30_861)"/>
<path d="M31.0116 6.29769C31.0157 6.75903 30.8369 7.20349 30.5139 7.53534L28.7408 9.29485C28.4064 9.61536 27.9585 9.79271 27.4936 9.7887C27.0286 9.78469 26.5839 9.59965 26.2552 9.27342C25.9264 8.94719 25.7399 8.50588 25.7359 8.04454C25.7318 7.5832 25.9106 7.13875 26.2336 6.8069L28.0067 5.04738C28.3411 4.72687 28.789 4.54952 29.2539 4.55353C29.7189 4.55754 30.1636 4.74259 30.4923 5.06882C30.8211 5.39504 31.0076 5.83635 31.0116 6.29769Z" fill="url(#paint2_angular_30_861)"/>
<path d="M11.3899 9.25367C13.2245 7.9012 15.4493 7.17097 17.7349 7.17112C20.0204 7.17097 22.2452 7.9012 24.0799 9.25367C25.9146 10.6061 27.2615 12.5089 27.9214 14.6803C28.5812 16.8517 28.5189 19.1762 27.7435 21.3097C26.9681 23.4431 25.521 25.2721 23.6164 26.5258H11.8534C9.94874 25.2721 8.50162 23.4431 7.72626 21.3097C6.95089 19.1762 6.88852 16.8517 7.54836 14.6803C8.2082 12.5089 9.55519 10.6061 11.3899 9.25367Z" fill="url(#paint3_angular_30_861)"/>
<path d="M12.4154 30.0448V28.2853H23.0543V30.0448C23.0543 31.4448 22.4939 32.7874 21.4963 33.7773C20.4987 34.7672 19.1457 35.3234 17.7349 35.3234C16.3241 35.3234 14.9711 34.7672 13.9735 33.7773C12.9759 32.7874 12.4154 31.4448 12.4154 30.0448Z" fill="url(#paint4_angular_30_861)"/>
<path d="M0.52276 16.484C0.85529 16.1541 1.3063 15.9687 1.77656 15.9687H3.54971C4.01998 15.9687 4.47098 16.1541 4.80351 16.484C5.13604 16.814 5.32286 17.2616 5.32286 17.7282C5.32286 18.1949 5.13604 18.6424 4.80351 18.9724C4.47098 19.3023 4.01998 19.4877 3.54971 19.4877H1.77656C1.3063 19.4877 0.85529 19.3023 0.52276 18.9724C0.190231 18.6424 0.00341797 18.1949 0.00341797 17.7282C0.00341797 17.2616 0.190231 16.814 0.52276 16.484Z" fill="url(#paint5_angular_30_861)"/>
<path d="M30.6662 16.484C30.9988 16.1541 31.4498 15.9687 31.92 15.9687H33.6932C34.1635 15.9687 34.6145 16.1541 34.947 16.484C35.2795 16.814 35.4663 17.2616 35.4663 17.7282C35.4663 18.1949 35.2795 18.6424 34.947 18.9724C34.6145 19.3023 34.1635 19.4877 33.6932 19.4877H31.92C31.4498 19.4877 30.9988 19.3023 30.6662 18.9724C30.3337 18.6424 30.1469 18.1949 30.1469 17.7282C30.1469 17.2616 30.3337 16.814 30.6662 16.484Z" fill="url(#paint6_angular_30_861)"/>
<defs>
<radialGradient id="paint0_angular_30_861" cx="0" cy="0" r="1" gradientUnits="userSpaceOnUse" gradientTransform="translate(17.7349 17.7282) rotate(180) scale(17.7315 17.5951)">
<stop offset="0.25" stop-color="#EA4335"/>
<stop offset="0.25" stop-color="#FBBC04"/>
<stop offset="0.499491" stop-color="#FBBC04"/>
<stop offset="0.49974" stop-color="#0F9D58"/>
<stop offset="0.750094" stop-color="#0F9D58"/>
<stop offset="0.750153" stop-color="#4285F4"/>
<stop offset="0.999812" stop-color="#4285F4"/>
<stop offset="0.9999" stop-color="#EA4335"/>
</radialGradient>
<radialGradient id="paint1_angular_30_861" cx="0" cy="0" r="1" gradientUnits="userSpaceOnUse" gradientTransform="translate(17.7349 17.7282) rotate(180) scale(17.7315 17.5951)">
<stop offset="0.25" stop-color="#EA4335"/>
<stop offset="0.25" stop-color="#FBBC04"/>
<stop offset="0.499491" stop-color="#FBBC04"/>
<stop offset="0.49974" stop-color="#0F9D58"/>
<stop offset="0.750094" stop-color="#0F9D58"/>
<stop offset="0.750153" stop-color="#4285F4"/>
<stop offset="0.999812" stop-color="#4285F4"/>
<stop offset="0.9999" stop-color="#EA4335"/>
</radialGradient>
<radialGradient id="paint2_angular_30_861" cx="0" cy="0" r="1" gradientUnits="userSpaceOnUse" gradientTransform="translate(17.7349 17.7282) rotate(180) scale(17.7315 17.5951)">
<stop offset="0.25" stop-color="#EA4335"/>
<stop offset="0.25" stop-color="#FBBC04"/>
<stop offset="0.499491" stop-color="#FBBC04"/>
<stop offset="0.49974" stop-color="#0F9D58"/>
<stop offset="0.750094" stop-color="#0F9D58"/>
<stop offset="0.750153" stop-color="#4285F4"/>
<stop offset="0.999812" stop-color="#4285F4"/>
<stop offset="0.9999" stop-color="#EA4335"/>
</radialGradient>
<radialGradient id="paint3_angular_30_861" cx="0" cy="0" r="1" gradientUnits="userSpaceOnUse" gradientTransform="translate(17.7349 17.7282) rotate(180) scale(17.7315 17.5951)">
<stop offset="0.25" stop-color="#EA4335"/>
<stop offset="0.25" stop-color="#FBBC04"/>
<stop offset="0.499491" stop-color="#FBBC04"/>
<stop offset="0.49974" stop-color="#0F9D58"/>
<stop offset="0.750094" stop-color="#0F9D58"/>
<stop offset="0.750153" stop-color="#4285F4"/>
<stop offset="0.999812" stop-color="#4285F4"/>
<stop offset="0.9999" stop-color="#EA4335"/>
</radialGradient>
<radialGradient id="paint4_angular_30_861" cx="0" cy="0" r="1" gradientUnits="userSpaceOnUse" gradientTransform="translate(17.7349 17.7282) rotate(180) scale(17.7315 17.5951)">
<stop offset="0.25" stop-color="#EA4335"/>
<stop offset="0.25" stop-color="#FBBC04"/>
<stop offset="0.499491" stop-color="#FBBC04"/>
<stop offset="0.49974" stop-color="#0F9D58"/>
<stop offset="0.750094" stop-color="#0F9D58"/>
<stop offset="0.750153" stop-color="#4285F4"/>
<stop offset="0.999812" stop-color="#4285F4"/>
<stop offset="0.9999" stop-color="#EA4335"/>
</radialGradient>
<radialGradient id="paint5_angular_30_861" cx="0" cy="0" r="1" gradientUnits="userSpaceOnUse" gradientTransform="translate(17.7349 17.7282) rotate(180) scale(17.7315 17.5951)">
<stop offset="0.25" stop-color="#EA4335"/>
<stop offset="0.25" stop-color="#FBBC04"/>
<stop offset="0.499491" stop-color="#FBBC04"/>
<stop offset="0.49974" stop-color="#0F9D58"/>
<stop offset="0.750094" stop-color="#0F9D58"/>
<stop offset="0.750153" stop-color="#4285F4"/>
<stop offset="0.999812" stop-color="#4285F4"/>
<stop offset="0.9999" stop-color="#EA4335"/>
</radialGradient>
<radialGradient id="paint6_angular_30_861" cx="0" cy="0" r="1" gradientUnits="userSpaceOnUse" gradientTransform="translate(17.7349 17.7282) rotate(180) scale(17.7315 17.5951)">
<stop offset="0.25" stop-color="#EA4335"/>
<stop offset="0.25" stop-color="#FBBC04"/>
<stop offset="0.499491" stop-color="#FBBC04"/>
<stop offset="0.49974" stop-color="#0F9D58"/>
<stop offset="0.750094" stop-color="#0F9D58"/>
<stop offset="0.750153" stop-color="#4285F4"/>
<stop offset="0.999812" stop-color="#4285F4"/>
<stop offset="0.9999" stop-color="#EA4335"/>
</radialGradient>
</defs>
</svg>
