<svg width="31" height="10" viewBox="0 0 31 10" fill="none" xmlns="http://www.w3.org/2000/svg">
<path d="M2.5298 9.37957C2.38666 9.46231 2.21827 9.52699 2.03425 9.56992C1.85024 9.61286 1.6542 9.6332 1.45733 9.6298C1.26046 9.62639 1.06661 9.5993 0.886862 9.55007C0.70711 9.50084 0.54497 9.43044 0.4097 9.34288C0.27443 9.25532 0.16868 9.15233 0.0984861 9.03977C0.0282926 8.92722 -0.00496941 8.80731 0.000599749 8.68689C0.00616891 8.56647 0.0504599 8.4479 0.130944 8.33795C0.211428 8.22801 0.326529 8.12883 0.469675 8.04609L13.964 0.250684C14.2423 0.0896988 14.6109 0 14.994 0C15.3771 0 15.7457 0.0896988 16.0241 0.250684L29.5199 8.04609C29.6661 8.12829 29.7843 8.22744 29.8674 8.33779C29.9505 8.44814 29.9969 8.5675 30.0039 8.68892C30.011 8.81034 29.9785 8.9314 29.9085 9.04508C29.8384 9.15877 29.732 9.2628 29.5957 9.35113C29.4593 9.43947 29.2956 9.51035 29.114 9.55966C28.9325 9.60897 28.7368 9.63572 28.5382 9.63837C28.3396 9.64101 28.1421 9.6195 27.9572 9.57507C27.7724 9.53064 27.6038 9.46419 27.4612 9.37957L14.994 2.17844L2.5298 9.37957Z" fill="#868686"/>
</svg>
