<svg width="69" height="68" viewBox="0 0 69 68" fill="#17212B" xmlns="http://www.w3.org/2000/svg">
<path d="M34.8494 0C16.1458 0 0.984375 15.1614 0.984375 33.8651C0.984375 50.845 13.4789 64.9041 29.7765 67.3525C31.4308 67.6014 32.7698 68 34.4936 68C36.0497 68 37.9379 67.6252 39.4399 67.422C55.9728 65.1818 68.7145 51.0126 68.7145 33.8651C68.7145 15.1614 53.5531 0 34.8494 0Z" fill="#E0F7FF"/>
<path d="M38.5122 35.3133H45.7855L46.9279 27.8147H38.5122V23.7161C38.5122 20.6015 39.5155 17.8391 42.3863 17.8391H46.9995V11.2961C46.1888 11.1848 44.4744 10.9424 41.2355 10.9424C34.4709 10.9424 30.5055 14.5676 30.5055 22.8276V27.8162H23.5513V35.3147H30.5041V55.9577C31.8812 56.1659 33.2765 56.2757 34.7084 56.2757C36.0026 56.2757 37.2658 56.1873 38.5122 56.0162V35.3133Z" />
</svg>
