<svg width="36" height="36" viewBox="0 0 36 36" fill="none" xmlns="http://www.w3.org/2000/svg">
<path d="M17.8776 0.821777C8.26163 0.821777 0.466797 8.61661 0.466797 18.2326C0.466797 26.9624 6.89052 34.1905 15.2695 35.4493C16.12 35.5773 16.9914 33.0318 17.8776 33.0318C18.6777 33.0318 19.4655 35.5895 20.2377 35.485C28.7376 34.3333 35.2885 27.0486 35.2885 18.2326C35.2885 8.61661 27.4936 0.821777 17.8776 0.821777Z" fill="#4C4848"/>
<path opacity="0.05" d="M21.1054 15.7691C21.1054 14.5294 21.371 13.0521 22.635 13.0521H26.3635L26.3626 8.16226L26.3191 7.42056L25.5826 7.32132C25.0534 7.24994 23.9521 7.10107 21.9211 7.10107C17.0731 7.10107 14.4031 9.98692 14.4031 15.2267V17.4013H10.0957L10.0957 23.7197H14.4031L14.4031 35.2962C15.5261 35.5234 16.6883 35.6444 17.8783 35.6444C18.9822 35.6444 20.0582 35.5304 21.1054 35.3336V23.7188H25.4869L26.4636 17.4005H21.1054V15.7691Z" fill="#4C4848"/>
<path opacity="0.05" d="M20.6695 15.7688C20.6695 14.591 20.9245 12.6166 22.6343 12.6166H25.9275V8.1873L25.9049 7.80426L25.528 7.7529C25.0083 7.68238 23.9279 7.53613 21.9213 7.53613C17.2874 7.53613 14.8386 10.1956 14.8386 15.2265V17.8364H10.5303V23.2842H14.8377L14.8377 35.3621C15.8266 35.5362 16.8382 35.6442 17.8776 35.6442C18.83 35.6442 19.758 35.5467 20.6695 35.3996V23.2834H25.1127L25.9545 17.8355H20.6686V15.7688H20.6695Z" fill="#4C4848"/>
<path d="M20.2335 22.8476H24.7394L25.4472 18.2703H20.2335V15.7684C20.2335 13.8671 20.8551 12.1809 22.6336 12.1809H25.4916V8.18684C24.9893 8.11894 23.9272 7.97095 21.9206 7.97095C17.7298 7.97095 15.2732 10.1839 15.2732 15.226V18.2712H10.9648V22.8485H15.2723L15.2723 35.4496C16.1254 35.5767 16.9899 35.6437 17.8769 35.6437C18.6787 35.6437 19.4613 35.5898 20.2335 35.4853V22.8476Z" fill="white"/>
</svg>
