<svg width="69" height="68" viewBox="0 0 69 68" fill="#E0F7FF" xmlns="http://www.w3.org/2000/svg">
<path d="M34.8367 0C16.1331 0 0.97168 15.1614 0.97168 33.8651C0.97168 48.913 10.7942 61.653 24.3724 66.064H45.3011C58.8792 61.653 68.7018 48.913 68.7018 33.8651C68.7018 15.1614 53.5404 0 34.8367 0Z" />
<path opacity="0.05" d="M45.0139 64.3364L44.997 54.5189C44.997 52.929 44.6244 51.3762 43.9099 49.9691C53.4615 48.0507 58.1095 42.4037 58.1095 32.7369C58.1095 28.9186 56.9835 25.5473 54.7636 22.7128C54.933 22.1761 55.0583 21.6207 55.1362 21.0518C55.4545 18.7337 55.0972 17.2182 54.8094 15.9991L54.7636 15.8027C54.4487 14.4548 54.0711 13.4931 54.0559 13.4524L53.8679 12.9749L53.68 12.4974L53.1686 12.4433L52.6555 12.3891C52.6555 12.3891 52.3186 12.3535 51.8072 12.3535C51.0977 12.3535 50.0462 12.4246 49.0523 12.7616L48.7204 12.8733C47.4674 13.295 46.2838 13.6946 44.6278 14.6834C44.1436 14.973 43.6136 15.3032 43.0463 15.6723C40.4827 15.0373 37.7244 14.7139 34.8374 14.7139C31.9216 14.7139 29.1396 15.039 26.5591 15.6808C25.9851 15.3082 25.4517 14.9747 24.9641 14.6834C23.3081 13.6946 22.1245 13.2967 20.8715 12.8733L20.5396 12.7616C19.549 12.4246 18.4958 12.3535 17.7864 12.3535C17.275 12.3535 16.9381 12.3891 16.9381 12.3891L16.4267 12.4433L15.9187 12.4957L15.7291 12.9716L15.5377 13.4507C15.5208 13.4948 15.1432 14.4565 14.8283 15.8061L14.7825 16.0008C14.4947 17.2182 14.1374 18.7354 14.4557 21.0518C14.537 21.6376 14.6674 22.2116 14.8452 22.7636C12.6694 25.5846 11.5671 28.9372 11.5671 32.7369C11.5671 42.38 16.2201 48.0236 25.7853 49.9573C25.4568 50.6143 25.2011 51.3085 25.0199 52.0298C24.6864 52.1433 24.3799 52.2195 24.109 52.2618C23.706 52.3228 23.2844 52.3532 22.8577 52.3532C21.6961 52.3532 20.7834 52.1263 20.4278 51.9147C19.8979 51.5997 18.9513 50.6837 18.0336 49.3443C17.2496 48.2014 16.0271 46.7062 14.6606 46.0814C13.4787 45.5413 12.2274 45.2314 11.225 45.2314C10.9913 45.2314 10.7763 45.2483 10.5884 45.2788C9.71294 45.4177 8.98145 45.8986 8.58354 46.5996C8.23981 47.2041 8.18562 47.9084 8.43453 48.5316C8.80535 49.4595 9.87549 50.1994 10.7086 50.6566C11.1183 50.8818 12.0039 51.7047 12.5204 52.5344C12.9081 53.1575 13.0876 53.6012 13.3365 54.2141C13.4838 54.5782 13.6464 54.9744 13.8665 55.4536C14.6623 57.1841 17.1463 58.7114 17.4274 58.879C18.7922 59.6969 21.0865 59.9593 22.773 60.0355L22.9813 60.0406H22.983C23.3893 60.0406 23.9481 60.0017 24.683 59.9204V64.3449C24.6864 65.2406 23.7737 65.4438 22.5664 65.4252L23.4926 65.7367C27.04 67.005 30.8498 67.7297 34.8374 67.7297C38.825 67.7297 42.6349 67.005 46.1873 65.7384L47.3777 65.2948C46.1738 65.2541 45.024 65.0577 45.0139 64.3364Z" />
<path opacity="0.07" d="M46.3175 65.6927C45.63 65.7723 44.1484 65.5082 44.1484 64.3466V54.519C44.1484 52.6666 43.5931 50.8768 42.5636 49.3512C52.5792 47.7307 57.2593 42.4207 57.2593 32.737C57.2593 28.9491 56.0977 25.6354 53.8068 22.8788C54.0387 22.2608 54.2013 21.6089 54.2944 20.9367C54.5907 18.7761 54.2673 17.4045 53.9829 16.1939L53.9371 15.9975C53.6357 14.7089 53.2802 13.8013 53.2649 13.764L53.077 13.2866L52.5639 13.2324C52.5639 13.2324 52.2625 13.2002 51.8036 13.2002C51.1585 13.2002 50.2052 13.2628 49.3213 13.5642L48.9895 13.676C47.7805 14.0841 46.6375 14.4684 45.0594 15.4099C44.4973 15.7452 43.8708 16.1397 43.1951 16.585C40.5994 15.906 37.7903 15.5606 34.8356 15.5606C31.852 15.5606 29.0192 15.9077 26.4048 16.5935C25.7225 16.1448 25.0926 15.7485 24.527 15.4099C22.9489 14.4684 21.806 14.0824 20.597 13.676L20.2651 13.5642C19.3829 13.2645 18.4279 13.2002 17.7828 13.2002C17.3239 13.2002 17.0225 13.2324 17.0225 13.2324L16.5112 13.2866L16.3198 13.7657C16.3046 13.803 15.949 14.7106 15.6476 15.9991L15.6019 16.1956C15.3157 17.4062 14.9923 18.7761 15.2903 20.9367C15.3852 21.6258 15.5545 22.293 15.7949 22.9246C13.548 25.6676 12.4101 28.9644 12.4101 32.737C12.4101 42.3936 17.0936 47.7019 27.1177 49.341C26.4489 50.34 25.9815 51.466 25.7411 52.6665C25.1823 52.8867 24.676 53.0323 24.2324 53.1C23.7871 53.1678 23.3231 53.2016 22.8541 53.2016C21.6857 53.2016 20.5631 52.9832 19.9925 52.6445C19.2475 52.2026 18.2027 51.0969 17.3307 49.8253C16.7381 48.9617 15.5579 47.4259 14.3032 46.8536C13.2279 46.3626 12.1053 46.0798 11.2198 46.0798C11.0335 46.0798 10.8642 46.0933 10.7152 46.117C10.0954 46.2153 9.58407 46.5437 9.31315 47.0212C9.09641 47.4005 9.06085 47.8391 9.21324 48.2201C9.51634 48.9786 10.639 49.6593 11.108 49.9167C11.6752 50.2283 12.6641 51.1765 13.2313 52.0908C13.6563 52.7749 13.8578 53.271 14.1135 53.8975C14.2574 54.2514 14.4149 54.6375 14.6283 55.1031C15.1887 56.3206 16.9192 57.5956 17.8539 58.1561C19.1306 58.9214 21.5012 59.1348 22.8016 59.1923L22.9896 59.1957C23.4958 59.1957 24.3442 59.1195 25.521 58.9671V64.3466C25.521 65.6657 23.843 65.7181 23.4315 65.7181C23.379 65.7181 24.2832 66.0297 24.2832 66.0297C27.6071 67.1202 31.1476 67.7297 34.8356 67.7297C38.5235 67.7297 42.0641 67.1202 45.3862 66.0314C45.3862 66.0314 46.37 65.686 46.3175 65.6927Z" />
<path d="M56.4134 32.7362C56.4134 28.8248 55.0893 25.5805 52.8288 23.0373C53.0743 22.487 53.33 21.7487 53.457 20.8208C53.7482 18.7042 53.4045 17.4343 53.1132 16.1915C52.822 14.9486 52.4783 14.0749 52.4783 14.0749C52.4783 14.0749 50.9171 13.9157 49.5947 14.3661C48.2722 14.8165 47.1344 15.1603 45.4936 16.139C44.7266 16.5961 43.9544 17.0973 43.3432 17.5037C40.7305 16.779 37.857 16.4065 34.8346 16.4065C31.785 16.4065 28.8862 16.7807 26.2549 17.5105C25.6419 17.1024 24.8647 16.5978 24.0926 16.1373C22.4518 15.1586 21.3139 14.8148 19.9915 14.3644C18.6691 13.914 17.1079 14.0732 17.1079 14.0732C17.1079 14.0732 16.7642 14.9469 16.4729 16.1898C16.1817 17.4326 15.838 18.7025 16.1292 20.8191C16.2596 21.7707 16.5237 22.5225 16.776 23.0762C14.5579 25.6042 13.2574 28.8282 13.2574 32.7345C13.2574 42.8653 18.73 47.4896 28.7016 48.7104C27.5383 49.9397 26.7577 51.5144 26.4953 53.2669C25.84 53.5548 25.0848 53.8257 24.3584 53.9341C22.4891 54.2168 20.513 53.9341 19.5614 53.3702C18.6098 52.8064 17.4804 51.5364 16.6338 50.3004C15.9192 49.2573 14.888 48.0466 13.9534 47.6199C12.719 47.0561 11.5185 46.8444 10.8496 46.9494C10.1791 47.0561 9.86246 47.5488 10.003 47.9027C10.1435 48.2549 10.8141 48.7849 11.5202 49.1726C12.2262 49.5604 13.3201 50.6187 13.9551 51.6414C14.6628 52.7827 14.8017 53.4413 15.4011 54.7451C15.8227 55.6629 17.2654 56.8092 18.2932 57.4256C19.1754 57.9556 20.938 58.257 22.8446 58.3433C23.5033 58.3738 25.0594 58.1808 26.3717 57.9945V64.3442C26.3717 65.4262 25.3811 66.2491 24.355 66.0595C27.6484 67.1668 31.1653 67.729 34.8346 67.729C38.5022 67.729 42.019 67.1668 45.3158 66.0628C44.2914 66.2508 43.3008 65.4279 43.3008 64.3459V54.5182C43.3008 52.2679 42.4085 50.2343 40.976 48.7188C50.8748 47.5302 56.4134 43.016 56.4134 32.7362ZM13.227 48.641C12.9662 48.5072 12.8257 48.26 12.9137 48.0856C13.0018 47.9112 13.2862 47.879 13.547 48.0128C13.8077 48.1465 13.9483 48.3937 13.8602 48.5681C13.7722 48.7426 13.4877 48.7747 13.227 48.641ZM15.2792 49.9194C15.142 50.0684 14.8474 50.021 14.6205 49.8144C14.3936 49.6078 14.3208 49.3183 14.458 49.1693C14.5951 49.0203 14.8897 49.0677 15.1166 49.2742C15.3435 49.4808 15.4163 49.7704 15.2792 49.9194ZM16.5559 52.0359C16.3832 52.1578 16.0902 52.0444 15.9023 51.7819C15.7143 51.5195 15.7025 51.2062 15.8752 51.0843C16.0479 50.9624 16.3409 51.0759 16.5288 51.3383C16.7151 51.6008 16.7286 51.914 16.5559 52.0359ZM18.3897 53.6293C18.2729 53.8189 17.941 53.8274 17.6497 53.6496C17.3585 53.4718 17.2163 53.1738 17.3331 52.9842C17.4499 52.7945 17.7818 52.786 18.073 52.9638C18.3643 53.1416 18.5065 53.4396 18.3897 53.6293ZM20.1236 55.1888C19.7629 55.1448 19.4954 54.9195 19.5259 54.6859C19.5546 54.4522 19.8713 54.2998 20.2303 54.3438C20.5909 54.3879 20.8585 54.6131 20.828 54.8467C20.7992 55.0787 20.4842 55.2328 20.1236 55.1888ZM22.9191 55.5935C22.5348 55.5714 22.2351 55.3513 22.2503 55.1041C22.2655 54.8569 22.589 54.6723 22.9733 54.6943C23.3577 54.7164 23.6574 54.9365 23.6422 55.1837C23.6269 55.4326 23.3035 55.6155 22.9191 55.5935ZM25.5572 55.3293C25.1475 55.3293 24.8156 55.116 24.8156 54.8535C24.8156 54.5911 25.1475 54.3777 25.5572 54.3777C25.967 54.3777 26.2989 54.5911 26.2989 54.8535C26.2989 55.116 25.9653 55.3293 25.5572 55.3293Z" fill="#17212B"/>
</svg>
