<svg width="36" height="36" viewBox="0 0 36 36" fill="none" xmlns="http://www.w3.org/2000/svg">
<path d="M18.3464 0.644531C8.73038 0.644531 0.935547 8.43936 0.935547 18.0554C0.935547 25.7919 5.98556 32.3418 12.9664 34.6096H23.7263C30.7072 32.3418 35.7572 25.7919 35.7572 18.0554C35.7572 8.43936 27.9624 0.644531 18.3464 0.644531Z" fill="#4C4848"/>
<path opacity="0.05" d="M23.579 33.7225L23.5703 28.6751C23.5703 27.8576 23.3788 27.0593 23.0114 26.3359C27.9221 25.3496 30.3118 22.4463 30.3118 17.4764C30.3118 15.5133 29.7328 13.7801 28.5916 12.3228C28.6786 12.0468 28.743 11.7613 28.7831 11.4688C28.9467 10.277 28.7631 9.49789 28.6151 8.8711L28.5916 8.77012C28.4296 8.07717 28.2355 7.5827 28.2277 7.56181L28.131 7.31632L28.0344 7.07082L27.7715 7.04297L27.5077 7.01511C27.5077 7.01511 27.3345 6.99683 27.0716 6.99683C26.7068 6.99683 26.1662 7.03339 25.6552 7.20663L25.4846 7.26408C24.8404 7.48085 24.2319 7.6863 23.3805 8.19469C23.1315 8.34355 22.859 8.51331 22.5674 8.70309C21.2494 8.37663 19.8313 8.21036 18.347 8.21036C16.848 8.21036 15.4177 8.37751 14.0909 8.70744C13.7958 8.51592 13.5216 8.34443 13.2709 8.19469C12.4195 7.6863 11.811 7.48172 11.1668 7.26408L10.9962 7.20663C10.4869 7.03339 9.94543 6.99683 9.58067 6.99683C9.31777 6.99683 9.14453 7.01511 9.14453 7.01511L8.88163 7.04297L8.62046 7.06995L8.52296 7.31457L8.42459 7.56094C8.41589 7.58357 8.22175 8.07804 8.05983 8.77186L8.03633 8.87197C7.88834 9.49789 7.70465 10.2779 7.86831 11.4688C7.9101 11.77 7.97713 12.0651 8.06854 12.3489C6.94989 13.7992 6.38317 15.5229 6.38317 17.4764C6.38317 22.4341 8.77542 25.3357 13.6931 26.3298C13.5242 26.6676 13.3928 27.0245 13.2996 27.3954C13.1281 27.4537 12.9706 27.4929 12.8313 27.5146C12.6241 27.546 12.4073 27.5616 12.1879 27.5616C11.5908 27.5616 11.1215 27.445 10.9387 27.3362C10.6662 27.1742 10.1796 26.7033 9.70777 26.0147C9.30471 25.4271 8.67618 24.6584 7.97365 24.3371C7.36601 24.0594 6.72268 23.9001 6.20732 23.9001C6.08719 23.9001 5.97663 23.9088 5.88 23.9245C5.42993 23.9959 5.05385 24.2431 4.84928 24.6035C4.67256 24.9143 4.6447 25.2765 4.77267 25.5968C4.96332 26.0739 5.5135 26.4543 5.94181 26.6894C6.15248 26.8051 6.60777 27.2282 6.87329 27.6548C7.07264 27.9751 7.16492 28.2032 7.29289 28.5184C7.36862 28.7055 7.4522 28.9092 7.56537 29.1556C7.97452 30.0453 9.25161 30.8305 9.39612 30.9167C10.0978 31.3372 11.2774 31.4721 12.1444 31.5113L12.2515 31.5139H12.2524C12.4613 31.5139 12.7486 31.4939 13.1264 31.4521V33.7268C13.1281 34.1873 12.6589 34.2918 12.0382 34.2822L12.5144 34.4424C14.3382 35.0944 16.2969 35.467 18.347 35.467C20.3972 35.467 22.3559 35.0944 24.1823 34.4433L24.7943 34.2152C24.1753 34.1943 23.5842 34.0933 23.579 33.7225Z" fill="#4C4848"/>
<path opacity="0.07" d="M24.25 34.42C23.8966 34.461 23.1349 34.3252 23.1349 33.728V28.6753C23.1349 27.723 22.8493 26.8028 22.32 26.0184C27.4693 25.1853 29.8755 22.4553 29.8755 17.4767C29.8755 15.5293 29.2783 13.8256 28.1004 12.4084C28.2197 12.0906 28.3033 11.7555 28.3512 11.4099C28.5035 10.2991 28.3372 9.59393 28.191 8.97149L28.1675 8.87051C28.0125 8.20803 27.8297 7.74142 27.8219 7.72226L27.7252 7.47677L27.4615 7.44891C27.4615 7.44891 27.3065 7.43237 27.0706 7.43237C26.7389 7.43237 26.2488 7.46458 25.7944 7.61954L25.6238 7.677C25.0022 7.8868 24.4146 8.08441 23.6032 8.56843C23.3142 8.7408 22.9921 8.94363 22.6448 9.17259C21.3102 8.8235 19.866 8.64591 18.3469 8.64591C16.813 8.64591 15.3566 8.82437 14.0125 9.17694C13.6616 8.94625 13.3378 8.74254 13.047 8.56843C12.2357 8.08441 11.6481 7.88593 11.0265 7.677L10.8559 7.61954C10.4023 7.46545 9.91134 7.43237 9.57967 7.43237C9.34375 7.43237 9.18879 7.44891 9.18879 7.44891L8.92589 7.47677L8.82752 7.72313C8.81968 7.74229 8.63687 8.2089 8.48191 8.87138L8.45841 8.97236C8.31129 9.5948 8.14501 10.2991 8.29823 11.4099C8.34698 11.7642 8.43403 12.1072 8.55765 12.4319C7.40244 13.8422 6.81744 15.5371 6.81744 17.4767C6.81744 22.4414 9.22536 25.1705 14.379 26.0132C14.0351 26.5268 13.7948 27.1057 13.6712 27.723C13.3839 27.8361 13.1236 27.911 12.8956 27.9458C12.6666 27.9806 12.4281 27.9981 12.1869 27.9981C11.5863 27.9981 11.0091 27.8858 10.7157 27.7116C10.3327 27.4844 9.79556 26.916 9.34723 26.2622C9.04254 25.8182 8.43578 25.0286 7.7907 24.7344C7.23791 24.4819 6.66074 24.3366 6.20545 24.3366C6.10969 24.3366 6.02263 24.3435 5.94603 24.3557C5.62741 24.4062 5.3645 24.5751 5.22522 24.8206C5.11379 25.0156 5.09551 25.241 5.17386 25.4369C5.32968 25.8269 5.90685 26.1769 6.14799 26.3092C6.43962 26.4694 6.94802 26.9569 7.23965 27.427C7.45816 27.7787 7.56175 28.0337 7.6932 28.3558C7.7672 28.5378 7.84816 28.7363 7.95785 28.9757C8.246 29.6016 9.13569 30.2571 9.61623 30.5453C10.2726 30.9387 11.4914 31.0484 12.16 31.078L12.2566 31.0798C12.5169 31.0798 12.953 31.0406 13.558 30.9622V33.728C13.558 34.4061 12.6953 34.4331 12.4838 34.4331C12.4568 34.4331 12.9217 34.5933 12.9217 34.5933C14.6306 35.1539 16.4509 35.4673 18.3469 35.4673C20.2429 35.4673 22.0632 35.1539 23.7712 34.5942C23.7712 34.5942 24.277 34.4166 24.25 34.42Z" fill="#4C4848"/>
<path d="M29.44 17.4751C29.44 15.4642 28.7593 13.7962 27.5971 12.4886C27.7233 12.2057 27.8548 11.8262 27.9201 11.3491C28.0698 10.2609 27.8931 9.60802 27.7434 8.96905C27.5936 8.33007 27.4169 7.88087 27.4169 7.88087C27.4169 7.88087 26.6143 7.79904 25.9344 8.0306C25.2545 8.26217 24.6695 8.43889 23.8259 8.94206C23.4316 9.17711 23.0346 9.43479 22.7203 9.64372C21.3771 9.27112 19.8998 9.0796 18.3459 9.0796C16.778 9.0796 15.2876 9.27199 13.9348 9.6472C13.6197 9.4374 13.2201 9.17798 12.8231 8.94119C11.9796 8.43802 11.3946 8.2613 10.7147 8.02973C10.0348 7.79817 9.23215 7.88 9.23215 7.88C9.23215 7.88 9.05543 8.3292 8.9057 8.96818C8.75596 9.60715 8.57924 10.2601 8.72898 11.3482C8.79601 11.8375 8.93181 12.224 9.06152 12.5087C7.92111 13.8084 7.25254 15.4659 7.25254 17.4742C7.25254 22.6827 10.0661 25.0601 15.1928 25.6878C14.5947 26.3198 14.1934 27.1294 14.0584 28.0304C13.7215 28.1784 13.3333 28.3177 12.9598 28.3734C11.9987 28.5188 10.9828 28.3734 10.4936 28.0835C10.0043 27.7936 9.42367 27.1407 8.9884 26.5052C8.62103 25.969 8.09087 25.3465 7.61033 25.1272C6.97571 24.8373 6.35849 24.7285 6.01463 24.7824C5.66989 24.8373 5.5071 25.0906 5.57936 25.2726C5.65161 25.4536 5.99635 25.7261 6.35936 25.9255C6.72238 26.1248 7.28475 26.6689 7.6112 27.1947C7.97509 27.7815 8.04647 28.1201 8.35464 28.7904C8.57141 29.2622 9.31311 29.8516 9.84153 30.1685C10.2951 30.441 11.2013 30.5959 12.1815 30.6403C12.5202 30.656 13.3202 30.5567 13.9949 30.461V33.7255C13.9949 34.2818 13.4856 34.7049 12.9581 34.6074C14.6513 35.1767 16.4594 35.4657 18.3459 35.4657C20.2314 35.4657 22.0396 35.1767 23.7345 34.6091C23.2078 34.7057 22.6986 34.2827 22.6986 33.7264V28.6738C22.6986 27.5168 22.2398 26.4713 21.5033 25.6922C26.5925 25.081 29.44 22.7602 29.44 17.4751ZM7.23687 25.6521C7.10281 25.5833 7.03055 25.4562 7.07582 25.3666C7.12109 25.2769 7.26734 25.2604 7.4014 25.3291C7.53546 25.3979 7.60772 25.525 7.56245 25.6147C7.51718 25.7043 7.37093 25.7209 7.23687 25.6521ZM8.29197 26.3094C8.22145 26.386 8.06998 26.3616 7.95332 26.2554C7.83667 26.1492 7.79924 26.0003 7.86975 25.9237C7.94027 25.8471 8.09174 25.8715 8.20839 25.9777C8.32505 26.0839 8.36248 26.2328 8.29197 26.3094ZM8.94835 27.3975C8.85956 27.4602 8.70896 27.4019 8.61232 27.267C8.51569 27.132 8.5096 26.971 8.5984 26.9083C8.68719 26.8456 8.8378 26.9039 8.93443 27.0389C9.03018 27.1738 9.03715 27.3349 8.94835 27.3975ZM9.89115 28.2167C9.83108 28.3142 9.66046 28.3186 9.51072 28.2272C9.36099 28.1358 9.28786 27.9825 9.34793 27.885C9.408 27.7875 9.57863 27.7832 9.72836 27.8746C9.87809 27.966 9.95122 28.1192 9.89115 28.2167ZM10.7826 29.0185C10.5972 28.9959 10.4596 28.8801 10.4753 28.7599C10.4901 28.6398 10.6529 28.5615 10.8374 28.5841C11.0229 28.6067 11.1604 28.7225 11.1447 28.8426C11.1299 28.9619 10.968 29.0411 10.7826 29.0185ZM12.2198 29.2266C12.0222 29.2152 11.8682 29.1021 11.876 28.975C11.8838 28.8479 12.0501 28.753 12.2477 28.7643C12.4453 28.7756 12.5994 28.8888 12.5916 29.0159C12.5837 29.1439 12.4175 29.2379 12.2198 29.2266ZM13.5762 29.0907C13.3655 29.0907 13.1949 28.9811 13.1949 28.8461C13.1949 28.7112 13.3655 28.6015 13.5762 28.6015C13.7868 28.6015 13.9575 28.7112 13.9575 28.8461C13.9575 28.9811 13.786 29.0907 13.5762 29.0907Z" fill="white"/>
</svg>
