<svg width="187" height="173" viewBox="0 0 187 173" fill="none" xmlns="http://www.w3.org/2000/svg">
<path d="M96.2757 172.393C84.9746 172.393 76.3415 170.96 72.8983 170.326C60.411 168.025 36.2732 163.58 18.822 144.968C-7.5803 116.81 -3.4691 72.4478 17.0102 43.1643C18.6132 40.8716 23.1547 34.1156 30.9764 26.7632C31.0298 26.8711 31.128 26.9606 31.2587 27.0065C31.7744 27.1904 32.2888 27.3964 32.7878 27.6196C32.8613 27.6527 32.9391 27.668 33.0159 27.668C33.1867 27.668 33.3517 27.5908 33.4488 27.4553C33.4598 27.44 33.4699 27.424 33.4792 27.4075C33.6054 27.1751 33.5004 26.8944 33.2448 26.7804C32.7232 26.5468 32.1855 26.331 31.6466 26.1391C38.8999 19.4512 48.8511 12.3636 61.7615 7.7482C56.7265 10.5049 52.1307 14.1266 48.459 18.3312C48.3773 18.3686 48.3151 18.4379 48.2928 18.5225C41.2576 26.6743 37.6961 36.9827 41.1035 47.4174C41.4137 48.3669 41.7889 49.3551 42.2282 50.3574C42.1958 50.4285 42.1627 50.499 42.1289 50.5695C42.016 50.8073 42.137 51.0825 42.3986 51.1849C42.4655 51.2107 42.5344 51.2229 42.6027 51.2229C42.6095 51.2229 42.6156 51.2229 42.6216 51.2229C44.9604 56.1767 48.8193 61.2579 53.9497 63.2876C54.4722 63.4942 55.0069 63.6683 55.5517 63.8105C55.891 63.9938 56.2553 64.163 56.6474 64.3181C59.024 65.2584 64.18 65.9401 68.3817 65.9401C70.3723 65.9401 72.1473 65.7874 73.3133 65.4362C82.9515 62.5342 89.2864 54.592 84.0445 45.7837C82.3662 42.9632 80.193 40.3867 78.7438 37.4633C77.2939 34.5398 76.6335 31.0702 78.1111 28.1584C80.8899 22.6848 89.8468 20.7863 96.0891 20.7863C96.3649 20.7863 96.6339 20.79 96.8982 20.7974C97.222 20.8066 97.5437 20.8213 97.8641 20.8421C101.451 22.4053 104.539 24.8475 106.77 28.0376C111.717 35.1112 112.97 43.7154 112.246 51.9267C111.471 60.7136 107.386 67.423 101.264 74.1636C95.9931 79.9664 90.1888 85.5368 86.6861 92.351C83.47 98.6068 82.4189 105.538 82.2736 112.382C82.2452 113.708 82.7379 127.56 82.769 131.379C82.7738 131.918 83.2523 132.354 83.8465 132.36C85.8391 133.09 91.5157 134.302 92.0051 134.307C95.1097 134.339 103.903 134.428 107.139 134.461C107.143 134.461 107.148 134.461 107.153 134.461C107.813 134.461 108.353 133.981 108.361 133.382C108.591 114.801 114.893 97.0878 130.845 84.6093C136.65 80.0688 142.901 76.3711 147.414 70.64C150.703 66.4636 153.14 62.3209 154.615 57.9219L177.987 56.8933C178.773 56.8583 179.478 56.5598 180.001 56.0939C191.748 85.1157 187.342 119.357 171.898 140.659C171.702 140.665 171.504 140.668 171.306 140.668C168.026 140.668 164.627 139.895 161.075 139.123C157.523 138.35 153.818 137.577 149.924 137.577C147.354 137.577 144.702 137.914 141.958 138.809C127.628 143.487 129.604 161.127 130.408 165.847C130.521 166.512 131.085 167.033 131.807 167.158C119.032 171.207 106.551 172.393 96.2757 172.393V172.393ZM91.4319 170.747C91.5008 170.77 91.5704 170.793 91.6407 170.816C93.3522 171.377 99.6357 171.392 102.034 171.392C102.172 171.392 102.297 171.392 102.407 171.392C111.828 171.392 117.05 163.833 117.05 155.289C117.05 146.902 107.433 140.675 98.1676 140.45C96.8184 140.139 95.4057 139.973 93.9497 139.973C84.5285 139.973 76.8917 146.9 76.8917 155.443C76.8917 163.211 83.205 169.642 91.4319 170.747ZM172.161 67.1054C171.314 67.1054 170.473 67.6289 170.367 68.5576C168.795 82.3988 156.976 87.2355 130.903 110.792C103.437 135.607 124.074 162.754 126.913 166.223C127.107 166.461 127.397 166.616 127.721 166.656C127.778 166.663 127.835 166.666 127.89 166.666C128.665 166.666 129.257 165.999 129.056 165.291C127.427 159.56 124.665 139.391 158.361 120.992C188.908 104.313 179.678 78.901 173.753 68.0108C173.416 67.3911 172.787 67.1054 172.161 67.1054V67.1054ZM27.0646 61.123C27.0395 61.123 27.0141 61.1249 26.9884 61.128C26.4471 61.2009 25.8965 61.2536 25.3519 61.2849C25.0674 61.3008 24.8513 61.5233 24.8694 61.7814C24.8867 62.0297 25.1137 62.2203 25.384 62.2203C25.395 62.2203 25.4061 62.2197 25.4172 62.2191C25.9904 62.186 26.5699 62.1308 27.1395 62.0542C27.292 62.034 27.4191 61.9549 27.4969 61.8464C27.5631 61.7538 27.5938 61.6404 27.5746 61.5227C27.5367 61.2904 27.3163 61.123 27.0646 61.123V61.123ZM20.9631 61.0936C20.7138 61.0936 20.4942 61.2579 20.4537 61.4884C20.4088 61.7434 20.6006 61.9837 20.8822 62.0242C21.4499 62.1063 22.029 62.1676 22.6032 62.2056C22.6161 62.2068 22.6289 62.2075 22.6416 62.2075C22.8209 62.2075 22.9817 62.1229 23.0743 61.9935C23.1202 61.9298 23.1493 61.855 23.156 61.7734C23.177 61.5154 22.9636 61.291 22.6792 61.272C22.1337 61.2358 21.5839 61.1776 21.0449 61.0998C21.0174 61.0955 20.9901 61.0936 20.9631 61.0936V61.0936ZM31.3441 60.1042C31.2826 60.1042 31.2202 60.114 31.1593 60.1355C30.6489 60.3126 30.1241 60.4733 29.5999 60.6112C29.326 60.6829 29.1685 60.9428 29.2481 61.1917C29.3137 61.3965 29.5198 61.5289 29.7437 61.5289C29.7914 61.5289 29.8399 61.5227 29.888 61.5105C30.4397 61.3652 30.9918 61.1966 31.5291 61.0096C31.6348 60.9729 31.7195 60.9079 31.7768 60.8282C31.8638 60.7068 31.8877 60.5505 31.8262 60.4046C31.7474 60.2189 31.5517 60.1042 31.3441 60.1042ZM16.6974 60.0258C16.4923 60.0258 16.2981 60.1373 16.2175 60.32C16.1116 60.5603 16.2405 60.8325 16.5052 60.9287C17.0398 61.1224 17.5893 61.2978 18.1387 61.4492C18.1889 61.4633 18.2396 61.47 18.2895 61.47C18.4635 61.47 18.6273 61.3897 18.7222 61.2567C18.7479 61.2211 18.7686 61.1813 18.7831 61.1384C18.8662 60.8907 18.7125 60.629 18.4398 60.5536C17.918 60.4095 17.3962 60.2434 16.8884 60.0589C16.8257 60.0362 16.761 60.0258 16.6974 60.0258V60.0258ZM35.2747 58.2652C35.1766 58.2652 35.0773 58.2903 34.9895 58.343C34.5356 58.6171 34.0622 58.877 33.5827 59.116C33.3328 59.2405 33.2414 59.5249 33.3789 59.7517C33.4729 59.9068 33.6494 59.9945 33.8317 59.9945C33.9157 59.9945 34.0009 59.9755 34.0798 59.9363C34.5846 59.6849 35.083 59.4115 35.561 59.1228C35.6215 59.0866 35.6709 59.0407 35.7081 58.9885C35.8169 58.8365 35.8228 58.6348 35.7052 58.4742C35.6058 58.3381 35.4419 58.2652 35.2747 58.2652V58.2652ZM12.7918 58.1389C12.6268 58.1389 12.4647 58.2106 12.3648 58.3437C12.1977 58.5576 12.2652 58.8488 12.5007 58.9941C12.6266 59.0719 12.7535 59.1485 12.8818 59.2239C13.236 59.433 13.6025 59.6347 13.9707 59.8241C14.051 59.8651 14.1384 59.8848 14.2246 59.8848C14.3945 59.8848 14.5598 59.8088 14.6576 59.6721C14.6634 59.6641 14.6689 59.6555 14.6742 59.6475C14.8147 59.4226 14.7275 59.1369 14.4794 59.0094C14.1293 58.8292 13.7812 58.6379 13.4444 58.4393C13.3224 58.3676 13.2016 58.294 13.0821 58.2204C12.9931 58.1653 12.8919 58.1389 12.7918 58.1389V58.1389ZM38.6647 55.6893C38.5288 55.6893 38.393 55.7378 38.2916 55.8346C37.9151 56.192 37.5163 56.5402 37.106 56.8688C36.893 57.0398 36.8728 57.3359 37.0614 57.5296C37.1634 57.6338 37.3054 57.6877 37.4487 57.6877C37.5697 57.6877 37.692 57.6485 37.79 57.57C38.2219 57.2243 38.6417 56.8577 39.0385 56.4807C39.0608 56.4593 39.0811 56.4366 39.098 56.4121C39.2304 56.2269 39.2041 55.9768 39.0216 55.8193C38.9215 55.7322 38.7931 55.6893 38.6647 55.6893V55.6893ZM10.0345 56.0872C9.90077 56.0872 9.76728 56.1344 9.66615 56.2275C9.4656 56.4127 9.46945 56.7081 9.67271 56.8896C9.87387 57.0686 10.0813 57.2458 10.2891 57.4162C10.3879 57.4971 10.5117 57.5375 10.6351 57.5375C10.776 57.5375 10.9164 57.4854 11.0183 57.3831C11.0371 57.3641 11.0538 57.3445 11.0685 57.3236C11.2043 57.1342 11.1723 56.8779 10.9816 56.7216C10.7842 56.5598 10.5871 56.3918 10.3962 56.2214C10.2957 56.1319 10.165 56.0872 10.0345 56.0872ZM41.3495 52.4992C41.1738 52.4992 41.0028 52.5801 40.9068 52.726C40.6215 53.1551 40.3174 53.5726 39.9997 53.9717C39.8334 54.1813 39.8854 54.4737 40.1159 54.6251C40.2079 54.6852 40.3133 54.714 40.4181 54.714C40.5783 54.714 40.7364 54.6466 40.8372 54.5197C41.0339 54.2727 41.2272 54.017 41.4117 53.759C41.5408 53.5787 41.6672 53.3954 41.7909 53.2091C41.9383 52.9878 41.8599 52.7003 41.6158 52.5666C41.532 52.5213 41.4401 52.4992 41.3495 52.4992V52.4992ZM35.426 28.0027C35.2605 28.0027 35.098 28.0744 34.9982 28.208L34.9927 28.216C34.8399 28.4293 34.9028 28.715 35.1361 28.8585C35.5972 29.1417 36.0491 29.4457 36.4794 29.7614C36.5754 29.8319 36.6903 29.8662 36.8045 29.8662C36.9546 29.8662 37.1039 29.8068 37.206 29.6922C37.2175 29.6793 37.2276 29.6664 37.2378 29.6523C37.3797 29.4543 37.3365 29.1864 37.1296 29.0338C36.6761 28.7015 36.2002 28.3815 35.7152 28.0836C35.6264 28.0291 35.5257 28.0027 35.426 28.0027V28.0027ZM36.1111 24.381C36.0003 24.381 35.8928 24.4325 35.8373 24.5257C35.8001 24.5845 35.7633 24.6428 35.7273 24.7022C35.4884 25.0921 35.2705 25.4973 35.0805 25.9044C35.0118 26.0515 35.0876 26.2207 35.2498 26.2832C35.2903 26.2985 35.3324 26.3059 35.3739 26.3059C35.4801 26.3059 35.5818 26.2581 35.6412 26.1747C35.6512 26.1606 35.6602 26.1459 35.6676 26.1299C35.8489 25.7413 36.0567 25.3557 36.2854 24.9824C36.3199 24.9254 36.3543 24.8702 36.3895 24.8157C36.4773 24.6771 36.4253 24.5006 36.2732 24.4203C36.2225 24.3939 36.1664 24.381 36.1111 24.381V24.381ZM38.105 21.9842C38.0219 21.9842 37.9387 22.0136 37.8759 22.0718C37.4845 22.4384 37.1134 22.8319 36.7727 23.2414C36.6686 23.3708 36.695 23.5504 36.8356 23.6466C36.893 23.6859 36.9606 23.7049 37.0269 23.7049C37.1235 23.7049 37.2195 23.665 37.2824 23.5902C37.6068 23.1991 37.961 22.8234 38.3342 22.474C38.3483 22.4605 38.3612 22.4457 38.3727 22.4304C38.4538 22.317 38.4383 22.1631 38.3267 22.0657C38.2652 22.0111 38.1848 21.9842 38.105 21.9842ZM40.683 20.1034C40.6256 20.1034 40.5681 20.1175 40.5154 20.147C40.0355 20.4161 39.5691 20.7146 39.1304 21.0346C38.9932 21.1357 38.9716 21.3172 39.0817 21.4416C39.1446 21.5121 39.2372 21.5495 39.3305 21.5495C39.4008 21.5495 39.4711 21.5287 39.5299 21.4858C39.949 21.1799 40.3931 20.8954 40.8507 20.6392C40.8926 20.6159 40.9257 20.5853 40.9507 20.5503C41.0156 20.4596 41.021 20.3394 40.9541 20.2408C40.8939 20.1525 40.7898 20.1034 40.683 20.1034V20.1034ZM43.6903 18.8523C43.6585 18.8523 43.6261 18.8566 43.5943 18.8658C43.0563 19.0209 42.5236 19.2072 42.0113 19.4205C41.8511 19.4867 41.7814 19.659 41.8544 19.8037C41.9085 19.9103 42.0241 19.9729 42.1444 19.9729C42.189 19.9729 42.2343 19.9643 42.2769 19.9465C42.7663 19.743 43.2739 19.5646 43.787 19.4169C43.86 19.396 43.9194 19.3531 43.958 19.2992C44.008 19.2287 44.0242 19.1398 43.9945 19.0534C43.9512 18.9308 43.8262 18.8523 43.6903 18.8523V18.8523ZM46.9449 18.3006C46.9382 18.3006 46.9314 18.3006 46.9247 18.3012C46.3609 18.3324 45.7938 18.3962 45.2402 18.4906C45.0672 18.52 44.9536 18.6714 44.9854 18.8284C45.0145 18.9669 45.1483 19.0638 45.2984 19.0638C45.318 19.0638 45.3382 19.0625 45.3578 19.0589C45.8857 18.9694 46.4265 18.9081 46.9639 18.878C47.0693 18.8725 47.1585 18.821 47.2119 18.7468C47.2478 18.6966 47.2667 18.6359 47.2626 18.5715C47.2525 18.4183 47.1119 18.3006 46.9449 18.3006V18.3006ZM133.247 166.69C133.491 166.419 133.619 166.06 133.559 165.676C133.166 163.161 135.076 161.08 150.943 158.736C145.122 162.122 139.158 164.719 133.247 166.69V166.69ZM153.6 32.7094C151.814 27.6502 149.098 22.8804 145.308 18.7891C142.708 15.9828 139.668 13.562 136.328 11.5182C142.625 14.2945 148.595 17.7342 154.019 21.8548C158.244 25.0652 162.024 28.5949 165.382 32.379L153.6 32.7094" fill="url(#paint0_linear_381_8109)"/>
<path d="M127.714 166.656C127.39 166.616 127.1 166.461 126.906 166.223C124.067 162.754 103.43 135.607 130.896 110.792C156.969 87.2352 168.788 82.3985 170.36 68.5574C170.544 66.9415 172.953 66.5534 173.746 68.0105C179.671 78.9007 188.901 104.312 158.354 120.992C124.658 139.391 127.42 159.559 129.049 165.291C129.265 166.049 128.569 166.761 127.714 166.656Z" fill="#91B3FA"/>
<path d="M131.909 167.172C131.143 167.077 130.535 166.541 130.417 165.847C129.612 161.127 127.637 143.487 141.966 138.809C148.868 136.557 155.187 137.84 161.084 139.123C168.666 140.772 175.549 142.421 182.072 136.555C182.682 136.007 183.708 136.485 183.562 137.253C182.53 142.7 177.933 155.318 157.481 157.856C135.59 160.574 133.126 162.851 133.568 165.676C133.704 166.547 132.87 167.29 131.909 167.172Z" fill="#91B3FA"/>
<path d="M125.59 162.204C125.428 162.204 125.275 162.12 125.202 161.982C123.293 158.308 121.867 154.402 121.078 150.369C120.674 148.354 120.436 146.308 120.367 144.255C120.313 142.201 120.409 140.139 120.694 138.095C121.242 134.005 122.515 129.997 124.347 126.225C126.185 122.45 128.613 118.925 131.449 115.709C134.285 112.489 137.574 109.608 141.171 107.091C142.973 105.835 144.857 104.674 146.824 103.63C148.749 102.628 150.577 101.61 152.347 100.451C155.881 98.1624 159.146 95.5197 161.956 92.5037C163.378 91.0091 164.666 89.4092 165.843 87.7418C166.996 86.0707 168.074 84.3077 168.849 82.4846L168.859 82.4607C168.919 82.321 169.067 82.2345 169.223 82.2345C169.27 82.2345 169.317 82.2425 169.363 82.2584C169.547 82.3228 169.646 82.5 169.602 82.6691C169.334 83.6959 168.979 84.6596 168.554 85.6159C168.138 86.5716 167.658 87.5033 167.135 88.4149C166.099 90.2441 164.857 91.9746 163.496 93.623C160.756 96.9118 157.441 99.801 153.788 102.251C151.966 103.469 150.018 104.589 148.092 105.6C146.217 106.586 144.413 107.69 142.686 108.885C139.227 111.274 136.091 114.047 133.323 117.087C127.805 123.172 123.89 130.515 122.601 138.334C121.944 142.234 121.936 146.227 122.528 150.16C123.114 154.098 124.351 157.954 125.983 161.672C126.072 161.871 125.966 162.096 125.747 162.176C125.696 162.195 125.642 162.204 125.59 162.204" fill="#C5D7FC"/>
<path d="M131.291 164.365C131.175 164.365 131.062 164.308 131.005 164.207C130.962 164.132 130.958 164.049 130.987 163.975L130.989 163.97C131.056 163.799 131.035 163.64 131.029 163.477L131.012 162.99L131 162.018C131.001 161.369 131.016 160.721 131.047 160.074C131.112 158.779 131.233 157.485 131.424 156.198C131.813 153.628 132.456 151.065 133.6 148.651C134.731 146.254 136.444 143.963 138.931 142.467C140.169 141.732 141.566 141.209 143.014 140.943C143.969 140.761 144.941 140.68 145.91 140.68C146.41 140.68 146.907 140.702 147.402 140.741C153.101 141.341 158.686 142.331 164.286 143.136C166.265 143.403 168.263 143.65 170.234 143.65C171.043 143.65 171.847 143.609 172.643 143.51C173.324 143.42 173.995 143.285 174.646 143.095C175.29 142.891 175.924 142.652 176.515 142.338C177.706 141.721 178.753 140.878 179.689 139.942L179.692 139.939C179.76 139.871 179.855 139.836 179.95 139.836C180.033 139.836 180.116 139.863 180.183 139.918C180.323 140.033 180.335 140.229 180.212 140.358C179.264 141.348 178.18 142.263 176.913 142.952C176.285 143.303 175.606 143.576 174.915 143.809C174.216 144.028 173.499 144.187 172.775 144.297C171.842 144.421 170.911 144.471 169.985 144.471C168.015 144.471 166.064 144.243 164.145 144.004C161.315 143.639 158.521 143.163 155.717 142.752C152.922 142.339 150.094 141.94 147.311 141.644C146.8 141.599 146.287 141.575 145.775 141.575C144.91 141.575 144.049 141.644 143.208 141.798C141.866 142.033 140.583 142.503 139.435 143.169C137.121 144.506 135.443 146.631 134.303 148.933C133.15 151.246 132.465 153.75 132.03 156.277C131.816 157.543 131.67 158.819 131.581 160.1C131.538 160.74 131.509 161.38 131.495 162.022L131.488 162.984L131.494 163.464C131.499 163.623 131.491 163.787 131.577 163.938C131.659 164.081 131.598 164.258 131.44 164.332C131.392 164.354 131.342 164.365 131.291 164.365" fill="#C5D7FC"/>
<path d="M107.158 134.461C107.153 134.461 107.148 134.461 107.144 134.461C103.908 134.428 95.1146 134.339 92.01 134.307C91.5207 134.302 85.8441 133.09 83.8515 132.36C83.8521 132.36 83.8521 132.36 83.8528 132.36C86.9567 132.392 95.75 132.481 98.9864 132.513C98.9912 132.514 98.9952 132.514 98.9999 132.514C99.6597 132.514 100.2 132.034 100.208 131.435C100.438 112.855 106.74 95.1406 122.692 82.6621C128.497 78.1216 134.748 74.4239 139.261 68.6929C141.96 65.2661 144.086 61.8615 145.576 58.3195L154.62 57.9216C153.145 62.3206 150.708 66.4633 147.419 70.6398C142.906 76.3708 136.654 80.0685 130.85 84.6091C114.898 97.0875 108.596 114.801 108.366 133.381C108.358 133.981 107.818 134.461 107.158 134.461V134.461ZM68.3866 65.9398C64.185 65.9398 59.0289 65.2582 56.6523 64.3178C56.2603 64.1627 55.896 63.9935 55.5566 63.8102C56.8781 64.156 58.255 64.3178 59.6386 64.3178C61.5069 64.3178 63.3874 64.0229 65.1604 63.489C74.7986 60.587 81.1335 52.6442 75.8916 43.8365C74.2132 41.016 72.0401 38.4396 70.5909 35.5161C69.1417 32.5927 68.4806 29.123 69.9582 26.2112C72.737 20.7376 81.6939 18.8391 87.9362 18.8391C88.2119 18.8391 88.481 18.8428 88.7453 18.8502C91.9762 18.9391 95.0734 19.6232 97.8691 20.8418C97.5487 20.821 97.2269 20.8063 96.9032 20.7971C96.6389 20.7898 96.3699 20.7861 96.0941 20.7861C89.8518 20.7861 80.8949 22.6846 78.1161 28.1581C76.6385 31.0699 77.2989 34.5396 78.7488 37.463C80.198 40.3865 82.3712 42.963 84.0495 45.7834C89.2914 54.5918 82.9565 62.5339 73.3183 65.4359C72.1523 65.7872 70.3773 65.9398 68.3866 65.9398V65.9398ZM146.147 32.9188C144.405 27.0621 141.479 21.51 137.155 16.8419C131.573 10.8161 123.96 6.56607 115.712 4.01594C116.134 4.09012 116.553 4.16674 116.97 4.24704C123.836 5.5595 130.536 7.96984 136.333 11.5179C139.673 13.5617 142.713 15.9825 145.313 18.7889C149.103 22.8801 151.819 27.65 153.605 32.7091L146.147 32.9188Z" fill="url(#paint1_linear_381_8109)"/>
<path d="M102.022 171.392C99.6238 171.392 93.3403 171.377 91.6288 170.816C91.5585 170.793 91.4889 170.769 91.4199 170.746C92.2419 170.856 93.0821 170.913 93.9378 170.913C103.359 170.913 110.996 163.987 110.996 155.443C110.996 148.22 105.537 142.152 98.1557 140.45C107.421 140.674 117.038 146.901 117.038 155.289C117.038 163.833 111.816 171.392 102.395 171.392C102.285 171.392 102.16 171.392 102.022 171.392" fill="url(#paint2_linear_381_8109)"/>
<path d="M99.0124 132.514C99.0077 132.514 99.0036 132.514 98.9989 132.514C95.7625 132.481 86.9692 132.392 83.8653 132.36C83.8646 132.36 83.8646 132.36 83.8639 132.36C83.2698 132.354 82.7912 131.918 82.7865 131.379C82.7554 127.56 82.2626 113.708 82.291 112.382C82.4363 105.538 83.4874 98.6067 86.7035 92.3509C90.2063 85.5367 96.0105 79.9663 101.282 74.1635C107.404 67.4229 111.488 60.7135 112.264 51.9266C112.987 43.7153 111.734 35.1111 106.787 28.0375C104.556 24.8474 101.468 22.4052 97.8815 20.842C95.0859 19.6233 91.9887 18.9392 88.7577 18.8503C88.4934 18.843 88.2244 18.8393 87.9486 18.8393C81.7063 18.8393 72.7495 20.7378 69.9707 26.2114C68.4931 29.1232 69.1541 32.5928 70.6033 35.5163C72.0526 38.4397 74.2257 41.0162 75.9041 43.8367C81.146 52.6444 74.8111 60.5872 65.1728 63.4892C63.3999 64.0231 61.5194 64.318 59.6511 64.318C58.2675 64.318 56.8906 64.1561 55.5691 63.8104C55.0243 63.6682 54.4896 63.4941 53.9671 63.2875C48.8368 61.2578 44.9778 56.1766 42.6391 51.2228C42.804 51.2173 42.9601 51.1395 43.0527 51.0101C43.069 50.9887 43.0825 50.9647 43.0946 50.9402C43.3224 50.4602 43.5306 49.9668 43.7131 49.4727C43.8037 49.2275 43.6577 48.962 43.3873 48.8799C43.3333 48.8633 43.2778 48.8554 43.2237 48.8554C43.0074 48.8554 42.8053 48.9792 42.7344 49.1754C42.5877 49.572 42.4234 49.9686 42.2457 50.3573C41.8063 49.355 41.4312 48.3668 41.1209 47.4173C37.7135 36.9826 41.275 26.6742 48.3102 18.5224C48.3061 18.5383 48.3034 18.5543 48.3021 18.5714C48.2913 18.7308 48.4251 18.8681 48.6008 18.8779C49.1382 18.908 49.679 18.9687 50.2076 19.0588C50.2278 19.0624 50.2474 19.0637 50.267 19.0637C50.3759 19.0637 50.4759 19.0128 50.534 18.9325C50.5563 18.9012 50.5719 18.8663 50.58 18.8283C50.6124 18.6713 50.4982 18.5199 50.3252 18.4905C49.7709 18.3961 49.2038 18.3317 48.64 18.3005C48.6333 18.2999 48.6265 18.2999 48.6198 18.2999C48.5684 18.2999 48.5197 18.3109 48.4765 18.3311C52.1482 14.1265 56.7439 10.5048 61.779 7.74811C63.846 6.61588 65.988 5.62954 68.17 4.80872C75.6506 1.99378 84.0829 0.74998 92.4686 0.74998C92.6714 0.74998 92.8742 0.750595 93.077 0.752435C98.4432 0.790441 103.78 1.33541 108.825 2.30029C111.154 2.74533 113.463 3.31666 115.724 4.01611C123.972 6.56623 131.585 10.8162 137.167 16.8421C141.492 21.5102 144.418 27.0622 146.16 32.9189L127.06 33.4547C124.706 33.5209 122.834 35.2711 122.834 37.4074V53.3328L113.562 61.934L124.684 59.2398L124.658 59.157C124.833 59.1944 125.016 59.214 125.203 59.214C125.242 59.214 125.281 59.2134 125.32 59.2116L145.588 58.3197C144.098 61.8616 141.972 65.2663 139.273 68.693C134.76 74.424 128.509 78.1217 122.705 82.6623C106.753 95.1407 100.451 112.855 100.22 131.435C100.213 132.034 99.6721 132.514 99.0124 132.514V132.514ZM47.9587 48.848C47.933 48.848 47.9067 48.8523 47.881 48.8609C47.7674 48.9001 47.7113 49.0148 47.7546 49.1171C48.8976 51.8303 50.1271 53.3708 50.1785 53.4346C50.2217 53.4879 50.288 53.5161 50.3556 53.5161C50.4002 53.5161 50.4455 53.5038 50.4847 53.4781C50.582 53.4131 50.6037 53.2893 50.532 53.2004C50.5198 53.1851 49.2842 51.6348 48.1635 48.9755C48.1304 48.8964 48.0466 48.848 47.9587 48.848V48.848ZM44.1538 44.9321C43.8923 44.9321 43.6685 45.1117 43.6415 45.3532C43.5861 45.8461 43.507 46.3426 43.4063 46.83C43.3535 47.0838 43.5381 47.3284 43.8186 47.3762C43.851 47.3817 43.8828 47.3842 43.9146 47.3842C44.091 47.3842 44.2532 47.302 44.3472 47.1714C44.3823 47.1212 44.408 47.0648 44.4208 47.0022C44.527 46.4898 44.6101 45.9663 44.6682 45.4477C44.6973 45.1902 44.4905 44.9609 44.2072 44.9346C44.189 44.9327 44.1714 44.9321 44.1538 44.9321V44.9321ZM46.106 43.1305C46.2215 43.9727 46.3763 44.7586 46.5541 45.4844C46.5764 45.577 46.667 45.6401 46.767 45.6401C46.7832 45.6401 46.7988 45.6389 46.815 45.6352C46.9326 45.6119 47.0077 45.5059 46.9813 45.3986C46.8157 44.7212 46.6704 43.9899 46.5582 43.2089C46.9603 43.2414 47.3666 43.2574 47.7715 43.2574C47.8215 43.2574 47.8722 43.2574 47.9229 43.2567C48.0337 43.2555 48.1304 43.2034 48.1865 43.125C48.2196 43.079 48.2385 43.0238 48.2379 42.9643C48.2358 42.8056 48.0939 42.6781 47.9188 42.6781C47.9182 42.6781 47.9168 42.6781 47.9154 42.6781C47.8654 42.6787 47.8161 42.6793 47.7661 42.6793C47.3375 42.6793 46.9069 42.6597 46.4818 42.6217C45.9289 37.896 46.6616 31.5115 51.5074 24.4128C52.4625 23.0139 53.4825 21.6923 54.564 20.4497C54.5782 20.5294 54.6289 20.6036 54.7107 20.6495C54.7911 20.6949 54.8709 20.7403 54.9493 20.7868C55.3217 21.0063 55.686 21.246 56.0321 21.4985C56.0916 21.5415 56.1619 21.5623 56.2322 21.5623C56.3255 21.5623 56.4174 21.5255 56.4809 21.455C56.4877 21.4471 56.4938 21.4391 56.4999 21.4305C56.5877 21.3079 56.5607 21.1418 56.4323 21.048C56.0693 20.7832 55.6874 20.5318 55.2967 20.302C55.2142 20.2535 55.1311 20.2057 55.0473 20.1585C54.9973 20.1303 54.9418 20.1174 54.8871 20.1174C54.8763 20.1174 54.8661 20.118 54.8553 20.1187C63.2234 10.7151 75.2464 5.90295 90.0001 5.90295C97.3428 5.90295 105.363 7.09464 113.944 9.50623C113.966 9.51236 113.987 9.51542 114.008 9.51542C114.101 9.51542 114.189 9.46025 114.218 9.37565C114.253 9.27083 114.189 9.15926 114.073 9.12677C105.422 6.69618 97.3563 5.47875 89.9481 5.47875C84.7528 5.47875 79.8806 6.07765 75.3579 7.27609C65.0951 9.99724 56.9453 15.6921 51.1356 24.2038C46.2134 31.4146 45.4814 37.9039 46.0512 42.702C46.0086 42.7455 45.9802 42.8001 45.9728 42.862C45.9593 42.9705 46.014 43.0716 46.106 43.1305V43.1305ZM44.1964 41.6868C44.1829 41.6868 44.1694 41.6868 44.1559 41.6881C43.872 41.7083 43.6591 41.9326 43.6814 42.1907C43.7023 42.4335 43.7172 42.6787 43.7273 42.919C43.7375 43.1715 43.9659 43.3702 44.2424 43.3702C44.2491 43.3702 44.2552 43.3702 44.262 43.3695C44.4364 43.364 44.5878 43.28 44.6757 43.1568C44.7318 43.0784 44.7629 42.9846 44.7588 42.8847C44.7487 42.6315 44.7324 42.374 44.7108 42.1184C44.6892 41.8732 44.4634 41.6868 44.1964 41.6868V41.6868ZM51.1478 42.2894C51.1214 42.2894 51.0951 42.2925 51.068 42.2986C50.5543 42.4188 50.0284 42.5119 49.5046 42.5751C49.3302 42.5965 49.2072 42.7418 49.2308 42.9C49.2518 43.0453 49.389 43.1507 49.5458 43.1507C49.56 43.1507 49.5742 43.1501 49.5884 43.1482C50.1379 43.082 50.6895 42.9846 51.2275 42.8583C51.308 42.8399 51.3729 42.7945 51.4148 42.7363C51.4621 42.6707 51.4797 42.588 51.4567 42.5064C51.4195 42.3758 51.2897 42.2894 51.1478 42.2894V42.2894ZM54.178 41.2111C54.1267 41.2111 54.0753 41.2222 54.0273 41.2455C53.5616 41.4735 53.0756 41.6782 52.5828 41.853C52.4186 41.9112 52.3374 42.0792 52.4023 42.2275C52.451 42.3415 52.572 42.4114 52.6991 42.4114C52.7376 42.4114 52.7768 42.4053 52.8153 42.3918C53.3317 42.2079 53.8414 41.9933 54.3301 41.7549C54.3781 41.731 54.4173 41.6973 54.4457 41.658C54.5072 41.5722 54.516 41.4594 54.4592 41.3632C54.4011 41.2663 54.2916 41.2111 54.178 41.2111V41.2111ZM56.8351 39.5057C56.7588 39.5057 56.6817 39.5303 56.6209 39.5805C56.2275 39.9042 55.8104 40.2082 55.3792 40.4853C55.2352 40.5785 55.2014 40.7581 55.3035 40.8887C55.3656 40.9678 55.4637 41.0107 55.5637 41.0107C55.6272 41.0107 55.6921 40.9935 55.7475 40.9573C56.1998 40.6668 56.6378 40.348 57.0494 40.009C57.0697 39.9919 57.0879 39.9722 57.1021 39.952C57.1792 39.8447 57.1704 39.6994 57.071 39.6001C57.0082 39.5376 56.9217 39.5057 56.8351 39.5057V39.5057ZM58.9583 37.2676C58.8555 37.2676 58.7548 37.3124 58.6933 37.3964C58.3986 37.796 58.0748 38.1829 57.7301 38.5458C57.6172 38.6671 57.6307 38.8492 57.7639 38.9534C57.824 39.0006 57.8984 39.0233 57.9721 39.0233C58.0613 39.0233 58.1505 38.9896 58.2141 38.9228C58.575 38.5421 58.9143 38.1369 59.2232 37.7176L59.2259 37.7145C59.3206 37.5821 59.2807 37.4043 59.1354 37.3167C59.0813 37.2836 59.0198 37.2676 58.9583 37.2676V37.2676ZM60.4318 34.6329C60.3014 34.6329 60.179 34.7065 60.1317 34.823C59.9505 35.2741 59.7369 35.7204 59.4977 36.1489C59.4179 36.2911 59.4808 36.4652 59.6376 36.5369C59.6842 36.5584 59.7336 36.5688 59.7816 36.5688C59.887 36.5688 59.9891 36.521 60.0492 36.437C60.0553 36.4284 60.0607 36.4198 60.0661 36.41C60.3176 35.9613 60.5413 35.4936 60.7306 35.0209C60.7907 34.8708 60.7056 34.7052 60.54 34.6507C60.5041 34.6384 60.4676 34.6329 60.4318 34.6329V34.6329ZM61.1625 31.7548C61.0016 31.7548 60.8631 31.8652 60.8455 32.0135C60.7907 32.4911 60.7022 32.9704 60.5832 33.4382C60.544 33.5939 60.6508 33.749 60.8225 33.7851C60.8468 33.79 60.8705 33.7925 60.8942 33.7925C61.0023 33.7925 61.103 33.7422 61.1611 33.6607C61.1814 33.6331 61.1963 33.6018 61.2051 33.5681C61.3295 33.0771 61.4221 32.5744 61.4795 32.0736C61.4984 31.9148 61.3707 31.7726 61.1956 31.7561C61.1848 31.7548 61.174 31.7548 61.1625 31.7548V31.7548ZM61.1956 29.5412C61.1868 29.5412 61.1787 29.5419 61.1706 29.5425C60.9955 29.5554 60.8637 29.6939 60.8773 29.8533C60.8969 30.0844 60.9097 30.3216 60.9144 30.5576C60.9178 30.7152 61.0598 30.8415 61.2335 30.8415C61.2355 30.8415 61.2375 30.8415 61.2396 30.8415C61.3491 30.839 61.445 30.7875 61.5011 30.7097C61.5343 30.6625 61.5532 30.6067 61.5525 30.5466C61.5471 30.2995 61.5343 30.0507 61.5133 29.8085C61.4998 29.6565 61.3605 29.5412 61.1956 29.5412V29.5412ZM57.457 21.9981C57.3772 21.9981 57.2968 22.0251 57.2353 22.0797C57.1075 22.1906 57.1055 22.3739 57.2279 22.4886C57.407 22.6565 57.5834 22.8318 57.7517 23.0096C57.8146 23.0764 57.9038 23.1108 57.9937 23.1108C58.0674 23.1108 58.1411 23.0875 58.2012 23.0409C58.2249 23.0225 58.2445 23.0016 58.2607 22.979C58.3357 22.8741 58.3296 22.7332 58.2357 22.6332C58.0593 22.4469 57.8741 22.263 57.6861 22.0864C57.6233 22.0276 57.5401 21.9981 57.457 21.9981V21.9981ZM51.8751 18.8546C51.7399 18.8546 51.6149 18.9337 51.5716 19.0557C51.5175 19.2077 51.6095 19.3708 51.7778 19.4192C52.2894 19.5682 52.7964 19.7478 53.2858 19.9531C53.329 19.9709 53.3743 19.9795 53.4189 19.9795C53.5251 19.9795 53.6265 19.9317 53.6866 19.8483C53.6947 19.8367 53.7022 19.825 53.7089 19.8122C53.7826 19.6669 53.713 19.4952 53.5535 19.4284C53.0404 19.2126 52.5084 19.0244 51.9724 18.8687C51.94 18.8595 51.9075 18.8546 51.8751 18.8546" fill="url(#paint3_linear_381_8109)"/>
<path d="M93.9367 170.915C93.0809 170.915 92.2407 170.858 91.4188 170.747C83.1919 169.643 76.8787 163.212 76.8787 155.444C76.8787 146.9 84.5154 139.974 93.9367 139.974C95.3926 139.974 96.8054 140.14 98.1545 140.451C105.536 142.153 110.995 148.221 110.995 155.444C110.995 163.988 103.358 170.915 93.9367 170.915V170.915ZM87.9634 145.146C87.9282 145.146 87.8924 145.154 87.8593 145.17C83.68 147.208 81.083 151.144 81.083 155.444C81.083 159.323 83.2014 162.936 86.7501 165.111C86.7873 165.133 86.8298 165.144 86.8724 165.144C86.9427 165.144 87.0117 165.114 87.0536 165.057C87.1218 164.967 87.0948 164.843 86.9948 164.781C83.5671 162.681 81.5203 159.191 81.5203 155.444C81.5203 151.291 84.0288 147.488 88.0668 145.519C88.1736 145.468 88.2135 145.347 88.156 145.251C88.1162 145.184 88.0411 145.146 87.9634 145.146V145.146ZM93.9367 143.787C93.8157 143.787 93.7177 143.876 93.7177 143.986C93.7177 144.095 93.8157 144.184 93.9367 144.184C95.9104 144.184 97.7976 144.592 99.5456 145.396C99.5774 145.411 99.6112 145.418 99.6443 145.418C99.7241 145.418 99.8011 145.378 99.8396 145.308C99.8944 145.211 99.8518 145.091 99.7437 145.042C97.9335 144.209 95.98 143.787 93.9367 143.787Z" fill="url(#paint4_linear_381_8109)"/>
<path d="M46.7661 45.6406C46.6661 45.6406 46.5755 45.5775 46.5532 45.4849C46.3755 44.7591 46.2207 43.9732 46.1051 43.131C46.1477 43.1585 46.1984 43.1763 46.2538 43.1818C46.3545 43.1923 46.4559 43.2015 46.5573 43.2094C46.6695 43.9904 46.8148 44.7217 46.9804 45.3991C47.0068 45.5064 46.9318 45.6124 46.8141 45.6357C46.7979 45.6394 46.7824 45.6406 46.7661 45.6406V45.6406ZM46.0503 42.7025C45.4805 37.9044 46.2126 31.4151 51.1347 24.2042C56.9444 15.6926 65.0942 9.99771 75.357 7.27656C79.8797 6.07812 84.7519 5.47921 89.9472 5.47921C97.3555 5.47921 105.421 6.69665 114.072 9.12724C114.188 9.15973 114.253 9.27129 114.217 9.37612C114.188 9.46071 114.101 9.51589 114.007 9.51589C113.986 9.51589 113.965 9.51282 113.943 9.50669C105.362 7.09511 97.3419 5.90341 89.9992 5.90341C75.2455 5.90341 63.2226 10.7155 54.8544 20.1191C54.7564 20.1277 54.6631 20.1768 54.607 20.2522C54.5651 20.3135 54.5516 20.384 54.5631 20.4502C53.4816 21.6927 52.4616 23.0144 51.5065 24.4133C46.6607 31.5119 45.928 37.8965 46.4809 42.6222C46.4289 42.6173 46.3761 42.6123 46.3241 42.6068C46.3119 42.6062 46.3004 42.6056 46.2889 42.6056C46.1957 42.6056 46.1091 42.6424 46.0503 42.7025" fill="url(#paint5_linear_381_8109)"/>
<path d="M50.352 53.5181C50.2844 53.5181 50.2181 53.4899 50.1749 53.4365C50.1235 53.3728 48.8939 51.8323 47.7509 49.1191C47.7077 49.0167 47.7638 48.9021 47.8773 48.8629C47.903 48.8543 47.9294 48.85 47.9551 48.85C48.0429 48.85 48.1267 48.8984 48.1599 48.9775C49.2806 51.6367 50.5162 53.187 50.5284 53.2024C50.6 53.2913 50.5784 53.4151 50.4811 53.4801C50.4419 53.5058 50.3966 53.5181 50.352 53.5181" fill="url(#paint6_linear_381_8109)"/>
<path d="M99.653 145.418C99.6199 145.418 99.586 145.411 99.5543 145.397C97.8063 144.592 95.9191 144.185 93.9453 144.185C93.8243 144.185 93.7263 144.096 93.7263 143.986C93.7263 143.876 93.8243 143.787 93.9453 143.787C95.9887 143.787 97.9422 144.21 99.7523 145.042C99.8605 145.092 99.9031 145.211 99.8483 145.309C99.8098 145.378 99.7327 145.418 99.653 145.418Z" fill="url(#paint7_linear_381_8109)"/>
<path d="M86.8768 165.145C86.8342 165.145 86.7916 165.133 86.7545 165.111C83.2058 162.936 81.0874 159.323 81.0874 155.444C81.0874 151.145 83.6844 147.208 87.8637 145.17C87.8968 145.154 87.9326 145.146 87.9678 145.146C88.0455 145.146 88.1205 145.184 88.1604 145.251C88.2179 145.347 88.178 145.468 88.0712 145.52C84.0331 147.488 81.5247 151.291 81.5247 155.444C81.5247 159.191 83.5715 162.681 86.9992 164.782C87.0992 164.843 87.1262 164.967 87.058 165.057C87.0161 165.114 86.9471 165.145 86.8768 165.145" fill="url(#paint8_linear_381_8109)"/>
<path d="M4.25539 41.2969C4.2297 41.2969 4.20375 41.295 4.17766 41.2914C3.89572 41.2527 3.70166 41.0143 3.74411 40.7586C3.8313 40.2351 3.945 39.7073 4.08188 39.1912C4.13879 38.9766 4.35022 38.8326 4.58329 38.8326C4.6233 38.8326 4.66393 38.8369 4.70455 38.8454C4.98155 38.9061 5.15229 39.1587 5.08558 39.41C4.95566 39.9004 4.84785 40.4013 4.76511 40.8984C4.75383 40.9665 4.72672 41.029 4.68785 41.0835C4.59444 41.2135 4.43255 41.2969 4.25539 41.2969V41.2969ZM5.42294 37.3577C5.35994 37.3577 5.29593 37.3472 5.23381 37.3252C4.96864 37.2302 4.83839 36.9586 4.94289 36.7177C5.15723 36.2254 5.39779 35.7344 5.65762 35.2587C5.74692 35.0938 5.92982 34.9988 6.1199 34.9988C6.19716 34.9988 6.27563 35.0141 6.34951 35.0478C6.60482 35.1625 6.70925 35.4432 6.58265 35.675C6.33559 36.1267 6.10699 36.5932 5.90346 37.0616C5.89048 37.0916 5.87433 37.1192 5.85574 37.1449C5.75983 37.2792 5.5953 37.3577 5.42294 37.3577V37.3577ZM7.52626 33.7519C7.42628 33.7519 7.3253 33.7256 7.23635 33.671C7.00376 33.5276 6.94116 33.2419 7.09372 33.0292L7.09987 33.0206C7.42878 32.5817 7.78237 32.1514 8.15055 31.74C8.25269 31.6266 8.40146 31.5672 8.55152 31.5672C8.66602 31.5672 8.78114 31.6015 8.87692 31.6726C9.08348 31.8246 9.12634 32.0919 8.98439 32.2905C8.97446 32.304 8.9635 32.3175 8.95188 32.331C8.60201 32.7215 8.26607 33.1303 7.95352 33.5472C7.85368 33.6802 7.69139 33.7519 7.52626 33.7519V33.7519ZM10.4557 30.6587C10.3172 30.6587 10.179 30.6084 10.0774 30.5091C9.88325 30.3191 9.89643 30.0242 10.1044 29.847C10.5326 29.4866 10.9833 29.1384 11.4441 28.8123C11.5384 28.7461 11.6502 28.7136 11.7612 28.7136C11.9149 28.7136 12.0668 28.7755 12.1686 28.8938C12.3078 29.0556 12.3113 29.2739 12.1946 29.4369C12.1642 29.4792 12.1255 29.5179 12.079 29.551C11.6416 29.8605 11.2135 30.1909 10.807 30.5336C10.7076 30.617 10.5815 30.6587 10.4557 30.6587Z" fill="#DEE8FD"/>
<path d="M36.8219 29.8667C36.7076 29.8667 36.5927 29.8324 36.4967 29.7619C36.0665 29.4462 35.6146 29.1421 35.1535 28.8589C34.9202 28.7155 34.8573 28.4298 35.0101 28.2165L35.0156 28.2085C35.1153 28.0749 35.2779 28.0031 35.4434 28.0031C35.5431 28.0031 35.6438 28.0295 35.7325 28.0841C36.2176 28.382 36.6934 28.702 37.147 29.0342C37.3538 29.1869 37.3971 29.4548 37.2551 29.6528C37.245 29.6669 37.2349 29.6797 37.2234 29.6926C37.1213 29.8072 36.9719 29.8667 36.8219 29.8667" fill="url(#paint9_linear_381_8109)"/>
<path d="M14.0734 28.2393C13.8949 28.2393 13.7213 28.1553 13.6258 28.0051C13.4833 27.7807 13.568 27.4944 13.815 27.3657C14.3212 27.1009 14.8464 26.8526 15.3755 26.6277C15.4463 26.5976 15.5208 26.5829 15.5942 26.5829C15.7882 26.5829 15.9741 26.6828 16.062 26.8526C16.1406 27.0047 16.1211 27.1757 16.0271 27.3069C15.9763 27.3774 15.9041 27.4368 15.8135 27.4754C15.3107 27.6888 14.812 27.9248 14.3309 28.1767C14.2497 28.219 14.161 28.2393 14.0734 28.2393V28.2393ZM30.9803 26.7637C30.9253 26.6528 30.9176 26.5228 30.9704 26.4008C31.0511 26.2157 31.2452 26.1035 31.451 26.1035C31.5138 26.1035 31.5775 26.1139 31.6395 26.136C31.6432 26.1372 31.6468 26.1385 31.6506 26.1397C31.4244 26.3481 31.2012 26.5559 30.9803 26.7637" fill="#DEE8FD"/>
<path d="M33.0285 27.6675C32.9518 27.6675 32.8739 27.6522 32.8005 27.6191C32.3015 27.3959 31.7871 27.1899 31.2714 27.006C31.1406 26.9601 31.0425 26.8706 30.989 26.7627C31.2099 26.5549 31.4331 26.3471 31.6593 26.1386C32.1981 26.3305 32.7359 26.5463 33.2575 26.7798C33.5131 26.8939 33.618 27.1746 33.4918 27.407C33.4826 27.4235 33.4725 27.4394 33.4615 27.4548C33.3644 27.5902 33.1994 27.6675 33.0285 27.6675" fill="url(#paint10_linear_381_8109)"/>
<path d="M18.1996 26.6084C17.9791 26.6084 17.7751 26.4791 17.7065 26.278C17.6223 26.0309 17.7749 25.7692 18.0474 25.6926C18.6066 25.5362 19.1793 25.3996 19.7492 25.2861C19.7863 25.2788 19.8234 25.2751 19.86 25.2751C20.0973 25.2751 20.3109 25.4247 20.3636 25.6435C20.3943 25.771 20.3648 25.8973 20.2922 25.9985C20.2208 26.0984 20.1078 26.1738 19.9696 26.2007C19.428 26.308 18.8838 26.438 18.3523 26.5876C18.3015 26.6017 18.2501 26.6084 18.1996 26.6084ZM28.798 26.2835C28.7583 26.2835 28.7181 26.2798 28.6778 26.2706C28.1379 26.1542 27.5859 26.0573 27.0367 25.9831C26.7549 25.9451 26.5603 25.7067 26.6024 25.451C26.6408 25.2187 26.861 25.052 27.1126 25.052C27.1378 25.052 27.1633 25.0532 27.1891 25.0569C27.7674 25.1353 28.3489 25.2371 28.9173 25.3603C29.1946 25.4198 29.3657 25.6723 29.2998 25.9243C29.2856 25.9776 29.2619 26.0273 29.2306 26.0708C29.1363 26.202 28.9733 26.2835 28.798 26.2835V26.2835ZM22.6169 25.844C22.3498 25.844 22.1235 25.657 22.1026 25.4118C22.0809 25.1537 22.2937 24.9288 22.5776 24.9091C23.1036 24.8724 23.6372 24.8534 24.1662 24.8534C24.2233 24.8534 24.2802 24.854 24.3372 24.854C24.6223 24.8564 24.8515 25.0679 24.8489 25.3266C24.848 25.4186 24.8178 25.505 24.766 25.5773C24.6738 25.7061 24.5139 25.7906 24.3327 25.7906C24.3313 25.7906 24.3299 25.7906 24.3285 25.7906C24.2724 25.79 24.2162 25.79 24.1599 25.79C23.6593 25.79 23.1546 25.8078 22.6571 25.8421C22.6436 25.8434 22.6302 25.844 22.6169 25.844" fill="#DEE8FD"/>
<path d="M4.04223 44.5781C3.76489 44.5781 3.53548 44.3783 3.52676 44.1251C3.51804 43.8707 3.51487 43.6126 3.5175 43.3576C3.51966 43.1002 3.75056 42.8936 4.03338 42.8936C4.03507 42.8936 4.03676 42.8936 4.03845 42.8936C4.32349 42.896 4.5525 43.1075 4.54979 43.3662C4.54743 43.609 4.55027 43.8542 4.55878 44.0957C4.56223 44.195 4.53127 44.2876 4.47585 44.3648C4.38689 44.4892 4.23453 44.5732 4.05879 44.5781C4.05325 44.5781 4.04777 44.5781 4.04223 44.5781" fill="#DEE8FD"/>
<path d="M10.6298 57.5371C10.5064 57.5371 10.3826 57.4967 10.2838 57.4157C10.076 57.2453 9.86858 57.0682 9.66742 56.8892C9.46417 56.7077 9.46032 56.4122 9.66087 56.2271C9.76199 56.1339 9.89549 56.0867 10.0292 56.0867C10.1597 56.0867 10.2904 56.1315 10.3909 56.221C10.5818 56.3914 10.7789 56.5593 10.9763 56.7212C11.167 56.8775 11.199 57.1338 11.0632 57.3232C11.0485 57.344 11.0318 57.3636 11.013 57.3826C10.9111 57.485 10.7708 57.5371 10.6298 57.5371Z" fill="url(#paint11_linear_381_8109)"/>
<path d="M25.3854 62.2207C25.1151 62.2207 24.8882 62.0301 24.8708 61.7818C24.8527 61.5237 25.0688 61.3012 25.3533 61.2853C25.8979 61.254 26.4485 61.2013 26.9899 61.1283C27.0155 61.1253 27.0409 61.1234 27.066 61.1234C27.3177 61.1234 27.5381 61.2908 27.576 61.5231C27.5952 61.6408 27.5645 61.7542 27.4983 61.8468C27.4205 61.9553 27.2934 62.0344 27.1409 62.0546C26.5713 62.1312 25.9918 62.1864 25.4186 62.2195C25.4075 62.2201 25.3964 62.2207 25.3854 62.2207V62.2207ZM22.643 62.2078C22.6303 62.2078 22.6175 62.2072 22.6046 62.206C22.0304 62.168 21.4513 62.1067 20.8836 62.0245C20.602 61.9841 20.4102 61.7438 20.4551 61.4888C20.4956 61.2583 20.7152 61.094 20.9645 61.094C20.9915 61.094 21.0188 61.0958 21.0463 61.1001C21.5853 61.178 22.1351 61.2362 22.6806 61.2724C22.965 61.2914 23.1784 61.5157 23.1574 61.7738C23.1507 61.8553 23.1216 61.9301 23.0757 61.9939C22.9831 62.1232 22.8224 62.2078 22.643 62.2078V62.2078ZM29.7451 61.5292C29.5212 61.5292 29.3151 61.3968 29.2495 61.1921C29.1699 60.9432 29.3274 60.6833 29.6013 60.6115C30.1255 60.4736 30.6503 60.313 31.1607 60.1359C31.2216 60.1144 31.284 60.1046 31.3455 60.1046C31.5531 60.1046 31.7488 60.2192 31.8276 60.405C31.8891 60.5509 31.8652 60.7072 31.7782 60.8286C31.7209 60.9082 31.6362 60.9732 31.5305 61.01C30.9932 61.197 30.4411 61.3656 29.8894 61.5108C29.8413 61.5231 29.7928 61.5292 29.7451 61.5292ZM18.2909 61.4704C18.241 61.4704 18.1903 61.4636 18.1401 61.4495C17.5907 61.2981 17.0412 61.1228 16.5066 60.9291C16.2419 60.8329 16.113 60.5607 16.2189 60.3204C16.2995 60.1377 16.4937 60.0261 16.6988 60.0261C16.7624 60.0261 16.8271 60.0365 16.8898 60.0592C17.3976 60.2437 17.9194 60.4099 18.4412 60.5539C18.7139 60.6293 18.8676 60.8911 18.7845 61.1387C18.77 61.1816 18.7493 61.2215 18.7237 61.2571C18.6287 61.3901 18.4649 61.4704 18.2909 61.4704V61.4704ZM33.8331 59.9949C33.6508 59.9949 33.4743 59.9072 33.3803 59.7521C33.2428 59.5253 33.3342 59.2409 33.5841 59.1164C34.0636 58.8773 34.537 58.6174 34.9909 58.3434C35.0787 58.2907 35.178 58.2656 35.2761 58.2656C35.4433 58.2656 35.6072 58.3385 35.7066 58.4746C35.8242 58.6352 35.8183 58.8369 35.7095 58.9889C35.6723 59.041 35.6229 59.087 35.5624 59.1232C35.0844 59.4119 34.5861 59.6853 34.0812 59.9366C34.0023 59.9759 33.9171 59.9949 33.8331 59.9949V59.9949ZM14.226 59.8851C14.1398 59.8851 14.0524 59.8655 13.9721 59.8244C13.6039 59.635 13.2374 59.4333 12.8832 59.2243C12.7549 59.1489 12.628 59.0723 12.5021 58.9944C12.2666 58.8491 12.1991 58.558 12.3662 58.344C12.4661 58.211 12.6282 58.1393 12.7932 58.1393C12.8933 58.1393 12.9945 58.1656 13.0835 58.2208C13.203 58.2944 13.3238 58.3679 13.4458 58.4397C13.7826 58.6383 14.1307 58.8295 14.4809 59.0098C14.7289 59.1373 14.8161 59.4229 14.6756 59.6479C14.6703 59.6559 14.6648 59.6645 14.659 59.6724C14.5612 59.8091 14.3959 59.8851 14.226 59.8851V59.8851ZM37.4501 57.6881C37.3068 57.6881 37.1648 57.6342 37.0628 57.5299C36.8742 57.3362 36.8945 57.0401 37.1074 56.8691C37.5177 56.5405 37.9165 56.1924 38.293 55.835C38.3944 55.7381 38.5302 55.6897 38.6661 55.6897C38.7945 55.6897 38.9229 55.7326 39.023 55.8196C39.2055 55.9772 39.2319 56.2273 39.0994 56.4124C39.0825 56.4369 39.0622 56.4596 39.0399 56.4811C38.6431 56.8581 38.2234 57.2247 37.7914 57.5704C37.6934 57.6489 37.5711 57.6881 37.4501 57.6881V57.6881ZM40.4195 54.7144C40.3147 54.7144 40.2093 54.6856 40.1173 54.6255C39.8868 54.4741 39.8348 54.1817 40.0011 53.972C40.3188 53.573 40.6229 53.1555 40.9082 52.7264C41.0042 52.5805 41.1752 52.4996 41.3509 52.4996C41.4415 52.4996 41.5334 52.5216 41.6172 52.567C41.8613 52.7006 41.9397 52.9881 41.7923 53.2094C41.6686 53.3958 41.5422 53.5791 41.4131 53.7593C41.2286 54.0174 41.0353 54.273 40.8386 54.5201C40.7378 54.647 40.5797 54.7144 40.4195 54.7144V54.7144ZM42.6041 51.2233C42.5358 51.2233 42.4669 51.211 42.4 51.1853C42.1384 51.0829 42.0174 50.8077 42.1303 50.5698C42.1641 50.4993 42.1972 50.4288 42.2296 50.3577C42.3554 50.6452 42.4872 50.9339 42.623 51.2233C42.617 51.2233 42.6109 51.2233 42.6041 51.2233" fill="url(#paint12_linear_381_8109)"/>
<path d="M42.6068 51.2231C42.4709 50.9338 42.3391 50.6451 42.2134 50.3576C42.3912 49.9689 42.5554 49.5723 42.7021 49.1757C42.7731 48.9795 42.9752 48.8557 43.1915 48.8557C43.2455 48.8557 43.301 48.8637 43.355 48.8802C43.6254 48.9624 43.7714 49.2278 43.6809 49.473C43.4983 49.9671 43.2902 50.4606 43.0624 50.9405C43.0502 50.9651 43.0367 50.989 43.0205 51.0104C42.9279 51.1398 42.7717 51.2176 42.6068 51.2231V51.2231ZM43.8823 47.3845C43.8505 47.3845 43.8187 47.382 43.7863 47.3765C43.5058 47.3287 43.3212 47.0841 43.374 46.8303C43.4747 46.343 43.5538 45.8464 43.6092 45.3536C43.6362 45.112 43.86 44.9324 44.1216 44.9324C44.1391 44.9324 44.1567 44.933 44.175 44.9349C44.4582 44.9612 44.665 45.1905 44.636 45.448C44.5778 45.9666 44.4947 46.4901 44.3886 47.0026C44.3757 47.0651 44.35 47.1215 44.3149 47.1718C44.2209 47.3023 44.0587 47.3845 43.8823 47.3845" fill="url(#paint13_linear_381_8109)"/>
<path d="M44.2155 43.3682C43.939 43.3682 43.7105 43.1696 43.7004 42.917C43.6903 42.6767 43.6754 42.4315 43.6544 42.1887C43.6321 41.9307 43.845 41.7063 44.1289 41.6861C44.1425 41.6848 44.156 41.6849 44.1695 41.6849C44.4365 41.6849 44.6622 41.8712 44.6839 42.1164C44.7055 42.372 44.7217 42.6295 44.7319 42.8827C44.7359 42.9826 44.7048 43.0764 44.6487 43.1548C44.5609 43.2781 44.4095 43.362 44.2351 43.3676C44.2283 43.3682 44.2222 43.3682 44.2155 43.3682" fill="url(#paint14_linear_381_8109)"/>
<path d="M38.1837 37.6867C38.1526 37.5978 38.0621 37.5365 37.9593 37.5346L35.0237 37.4758C34.3184 36.4091 33.4206 35.4369 32.3461 34.6075L32.7651 31.9734C32.7797 31.8808 32.7282 31.7901 32.6366 31.7472L29.5048 30.2858C29.4133 30.2429 29.302 30.2576 29.2276 30.3219L27.1075 32.1622C25.7384 31.8514 24.3441 31.7539 22.9772 31.8532L21.2185 29.7206C21.1568 29.6458 21.0496 29.6151 20.9517 29.6433L17.5973 30.618C17.4994 30.6468 17.432 30.7284 17.4298 30.8215L17.3653 33.4838C16.1891 34.1238 15.117 34.9379 14.2021 35.9126L11.2976 35.5325C11.1956 35.519 11.0957 35.5656 11.0486 35.649L9.43671 38.4891C9.3896 38.5724 9.40576 38.673 9.47693 38.7404L11.506 40.6634C11.1633 41.9048 11.0557 43.1694 11.1654 44.4089L8.81383 46.004C8.73144 46.0598 8.6971 46.1572 8.7286 46.2461L9.80334 49.2879C9.83471 49.3768 9.92495 49.4381 10.0278 49.4399L12.9636 49.4987C13.6688 50.5654 14.5667 51.5376 15.6412 52.367L15.2222 55.0011C15.2075 55.0937 15.2591 55.1844 15.3506 55.2273L18.4825 56.6888C18.574 56.7317 18.6853 56.7169 18.7597 56.6526L20.8798 54.8123C22.2489 55.1231 23.6432 55.2206 25.0101 55.1213L26.7688 57.254C26.8305 57.3287 26.9376 57.36 27.0357 57.3312L30.3899 56.3565C30.488 56.3283 30.5552 56.2462 30.5575 56.153L30.622 53.4907C31.7981 52.8507 32.8702 52.0366 33.7853 51.0619L36.6899 51.442C36.7913 51.4555 36.8913 51.4089 36.9387 51.3255L38.5508 48.4854C38.5974 48.4021 38.5819 48.3015 38.5102 48.2341L36.481 46.3111C36.8237 45.0697 36.9312 43.8051 36.8217 42.5656L39.1733 40.9705C39.2558 40.9148 39.2902 40.8173 39.2585 40.7284L38.1837 37.6867" fill="#91B3FA"/>
<path d="M21.2688 43.6425C21.3143 44.2984 21.6389 44.8998 22.1829 45.3344C23.3055 46.2318 25.0245 46.1343 26.0142 45.1161C27.0048 44.0973 26.896 42.539 25.7732 41.641C24.6505 40.7435 22.9316 40.8416 21.9418 41.8598C21.8521 41.9518 21.7709 42.0493 21.6983 42.1504C21.3829 42.5905 21.2318 43.1091 21.2688 43.6425V43.6425ZM26.6337 45.6115C25.3426 46.9392 23.1011 47.0674 21.6365 45.8959C20.927 45.3289 20.5037 44.5454 20.4444 43.6891C20.385 42.8333 20.6965 42.0076 21.3223 41.3645C22.6134 40.0361 24.855 39.9086 26.3195 41.0795C27.6518 42.1449 27.8887 43.9232 26.9482 45.2357C26.855 45.3656 26.7501 45.4913 26.6337 45.6115Z" fill="#BDD0FB"/>
<path d="M31.2079 47.8159C31.3695 47.5903 31.5194 47.3568 31.6569 47.114C31.7002 47.038 31.7421 46.9614 31.7827 46.8835C31.9827 46.5016 32.1489 46.1056 32.2786 45.7016L32.284 45.6851C32.2889 45.6698 32.2939 45.6538 32.2986 45.6385C32.3081 45.6079 32.3173 45.5772 32.3265 45.5466C32.3504 45.4662 32.3129 45.3841 32.2399 45.3412C32.2221 45.3308 32.2022 45.3228 32.1807 45.3173C32.0706 45.2903 31.9576 45.3498 31.9278 45.4497C31.7752 45.9634 31.5606 46.4661 31.2897 46.943C29.9454 49.3123 27.3959 50.7602 24.6665 50.9889C23.1484 51.1164 21.5746 50.8663 20.1214 50.1883C19.8665 50.0693 19.6202 49.9394 19.3832 49.7996C17.7879 48.8593 16.6076 47.4616 16.0192 45.7961C15.3432 43.8835 15.5292 41.8458 16.5428 40.0601C18.6366 36.371 23.6456 34.917 27.7111 36.8142C27.9618 36.9313 28.205 37.0594 28.4397 37.198C29.4574 37.7981 30.3189 38.5932 30.9595 39.5292C30.9761 39.5532 30.9976 39.5728 31.0224 39.5875C31.0873 39.6255 31.1736 39.6292 31.2437 39.5893C31.3405 39.5348 31.3708 39.4195 31.3103 39.3313C30.6378 38.3486 29.7333 37.5137 28.665 36.8841C28.4185 36.7388 28.1633 36.604 27.9002 36.4814C23.6318 34.4891 18.3717 36.0185 16.1756 39.8885C15.1114 41.7637 14.9163 43.9018 15.6259 45.9107C16.2435 47.659 17.4827 49.1259 19.1575 50.1135C19.4063 50.26 19.665 50.3961 19.9323 50.5211C22.0001 51.4866 24.3583 51.6632 26.5727 51.0201C28.501 50.4598 30.1193 49.3356 31.2079 47.8159" fill="#BDD0FB"/>
<path d="M57.9831 23.1123C57.8932 23.1123 57.804 23.078 57.7411 23.0112C57.5728 22.8334 57.3964 22.6581 57.2173 22.4901C57.095 22.3755 57.097 22.1922 57.2247 22.0812C57.2862 22.0267 57.3667 21.9997 57.4464 21.9997C57.5296 21.9997 57.6127 22.0291 57.6756 22.088C57.8635 22.2645 58.0487 22.4484 58.2251 22.6348C58.3191 22.7347 58.3252 22.8757 58.2501 22.9805C58.2339 23.0032 58.2143 23.024 58.1906 23.0424C58.1305 23.089 58.0568 23.1123 57.9831 23.1123" fill="url(#paint15_linear_381_8109)"/>
<path d="M35.3842 26.3076C35.3427 26.3076 35.3006 26.3003 35.26 26.2849C35.0978 26.2224 35.0221 26.0532 35.0908 25.9061C35.2808 25.4991 35.4987 25.0939 35.7376 24.704C35.7735 24.6445 35.8104 24.5863 35.8476 24.5274C35.903 24.4343 36.0106 24.3828 36.1214 24.3828C36.1767 24.3828 36.2328 24.3956 36.2835 24.422C36.4355 24.5023 36.4876 24.6788 36.3997 24.8174C36.3646 24.8719 36.3301 24.9271 36.2956 24.9841C36.067 25.3574 35.8591 25.743 35.6778 26.1317C35.6705 26.1476 35.6615 26.1623 35.6515 26.1764C35.592 26.2598 35.4903 26.3076 35.3842 26.3076V26.3076ZM37.0371 23.7066C36.9709 23.7066 36.9033 23.6876 36.8458 23.6484C36.7052 23.5521 36.6789 23.3725 36.783 23.2432C37.1237 22.8337 37.4947 22.4401 37.8861 22.0735C37.949 22.0153 38.0321 21.9859 38.1153 21.9859C38.195 21.9859 38.2755 22.0129 38.337 22.0674C38.4485 22.1649 38.464 22.3187 38.3829 22.4322C38.3714 22.4475 38.3586 22.4622 38.3444 22.4757C37.9713 22.8251 37.6171 23.2009 37.2926 23.592C37.2298 23.6668 37.1338 23.7066 37.0371 23.7066Z" fill="url(#paint16_linear_381_8109)"/>
<path d="M56.2119 21.5625C56.1416 21.5625 56.0713 21.5417 56.0118 21.4987C55.6658 21.2462 55.3014 21.0065 54.929 20.787C54.8506 20.7405 54.7708 20.6951 54.6904 20.6497C54.6086 20.6038 54.5579 20.5296 54.5437 20.4499C54.641 20.3383 54.737 20.2292 54.835 20.1189C54.8458 20.1183 54.856 20.1176 54.8668 20.1176C54.9215 20.1176 54.977 20.1305 55.027 20.1587C55.1108 20.2059 55.194 20.2537 55.2764 20.3022C55.6671 20.532 56.049 20.7834 56.412 21.0482C56.5404 21.142 56.5675 21.3081 56.4796 21.4307C56.4735 21.4393 56.4674 21.4473 56.4607 21.4552C56.3971 21.5257 56.3052 21.5625 56.2119 21.5625" fill="url(#paint17_linear_381_8109)"/>
<path d="M54.5476 20.4492C54.5362 20.3834 54.5496 20.3133 54.591 20.2523C54.6464 20.1773 54.7386 20.1285 54.8354 20.12C54.7386 20.2297 54.6438 20.3383 54.5476 20.4492Z" fill="url(#paint18_linear_381_8109)"/>
<path d="M39.3215 21.5503C39.2282 21.5503 39.1356 21.5129 39.0727 21.4424C38.9626 21.318 38.9842 21.1365 39.1214 21.0354C39.5601 20.7154 40.0265 20.4168 40.5064 20.1477C40.5591 20.1183 40.6166 20.1042 40.674 20.1042C40.7808 20.1042 40.8849 20.1532 40.9451 20.2415C41.012 20.3402 41.0066 20.4604 40.9417 20.5511C40.9167 20.586 40.8836 20.6167 40.8417 20.64C40.3841 20.8962 39.94 21.1806 39.5209 21.4865C39.4621 21.5294 39.3918 21.5503 39.3215 21.5503" fill="url(#paint19_linear_381_8109)"/>
<path d="M53.409 19.9785C53.3644 19.9785 53.3191 19.9699 53.2758 19.9522C52.7864 19.7468 52.2795 19.5672 51.7678 19.4182C51.5995 19.3698 51.5076 19.2067 51.5616 19.0547C51.6049 18.9327 51.7299 18.8536 51.8651 18.8536C51.8976 18.8536 51.93 18.8585 51.9625 18.8677C52.4985 19.0234 53.0305 19.2116 53.5435 19.4274C53.703 19.4942 53.7726 19.6659 53.699 19.8112C53.6922 19.824 53.6848 19.8357 53.6766 19.8473C53.6165 19.9307 53.5151 19.9785 53.409 19.9785" fill="url(#paint20_linear_381_8109)"/>
<path d="M42.161 19.9731C42.0407 19.9731 41.9251 19.9106 41.871 19.8039C41.798 19.6593 41.8676 19.487 42.0278 19.4208C42.5402 19.2075 43.0728 19.0211 43.6109 18.866C43.6426 18.8568 43.6751 18.8526 43.7069 18.8526C43.8427 18.8526 43.9678 18.931 44.011 19.0536C44.0408 19.1401 44.0245 19.2289 43.9745 19.2994C43.936 19.3534 43.8765 19.3963 43.8035 19.4171C43.2905 19.5649 42.7828 19.7433 42.2935 19.9468C42.2509 19.9646 42.2056 19.9731 42.161 19.9731V19.9731ZM48.3093 18.5228C48.3316 18.4382 48.3938 18.3689 48.4756 18.3315C48.4202 18.3953 48.3648 18.4584 48.3093 18.5228Z" fill="url(#paint21_linear_381_8109)"/>
<path d="M50.2305 19.064C50.2109 19.064 50.1913 19.0627 50.171 19.0591C49.6424 18.9689 49.1016 18.9083 48.5643 18.8782C48.3885 18.8684 48.2547 18.7311 48.2655 18.5717C48.2669 18.5545 48.2696 18.5386 48.2736 18.5227C48.329 18.4583 48.3845 18.3952 48.4399 18.3314C48.4832 18.3112 48.5318 18.3002 48.5832 18.3002C48.59 18.3002 48.5967 18.3002 48.6035 18.3008C49.1672 18.332 49.7343 18.3964 50.2886 18.4908C50.4616 18.5202 50.5759 18.6716 50.5434 18.8286C50.5353 18.8666 50.5198 18.9015 50.4975 18.9328C50.4393 19.0131 50.3393 19.064 50.2305 19.064" fill="url(#paint22_linear_381_8109)"/>
<path d="M45.3095 19.064C45.1594 19.064 45.0256 18.9671 44.9965 18.8286C44.9648 18.6716 45.0783 18.5202 45.2514 18.4908C45.805 18.3964 46.3721 18.3326 46.9358 18.3014C46.9426 18.3008 46.9493 18.3008 46.9561 18.3008C47.123 18.3008 47.2636 18.4185 47.2738 18.5717C47.2778 18.6361 47.2589 18.6968 47.2231 18.747C47.1697 18.8212 47.0805 18.8727 46.975 18.8782C46.4376 18.9083 45.8969 18.9696 45.369 19.0591C45.3494 19.0627 45.3291 19.064 45.3095 19.064" fill="url(#paint23_linear_381_8109)"/>
<path d="M47.7609 43.2583C47.356 43.2583 46.9498 43.2424 46.5476 43.2099C46.5206 43.0174 46.4949 42.8212 46.4712 42.6226C46.8964 42.6606 47.327 42.6802 47.7555 42.6802C47.8055 42.6802 47.8549 42.6796 47.9049 42.679C47.9063 42.679 47.9076 42.679 47.9083 42.679C48.0834 42.679 48.2253 42.8065 48.2273 42.9653C48.228 43.0248 48.2091 43.0799 48.176 43.1259C48.1199 43.2044 48.0232 43.2565 47.9123 43.2577C47.8616 43.2583 47.8109 43.2583 47.7609 43.2583V43.2583ZM46.0954 43.1314C46.0035 43.0726 45.9487 42.9714 45.9622 42.8629C45.9697 42.801 45.9981 42.7464 46.0407 42.7029C46.0575 42.847 46.0765 42.9904 46.0954 43.1314" fill="url(#paint24_linear_381_8109)"/>
<path d="M46.5515 43.209C46.4504 43.201 46.3493 43.1919 46.2488 43.1815C46.1935 43.176 46.143 43.1582 46.1005 43.1307C46.0816 42.9901 46.0628 42.847 46.0459 42.7034C46.1045 42.6434 46.1908 42.6068 46.2839 42.6068C46.2953 42.6068 46.3068 42.6074 46.3189 42.608C46.3708 42.6135 46.4234 42.6184 46.4753 42.6233C46.4989 42.8214 46.5245 43.017 46.5515 43.209Z" fill="url(#paint25_linear_381_8109)"/>
<path d="M49.534 43.1504C49.3771 43.1504 49.2399 43.045 49.219 42.8997C49.1953 42.7415 49.3183 42.5962 49.4927 42.5748C50.0166 42.5116 50.5425 42.4185 51.0562 42.2983C51.0832 42.2922 51.1096 42.2891 51.1359 42.2891C51.2779 42.2891 51.4077 42.3755 51.4448 42.5061C51.4678 42.5876 51.4503 42.6704 51.4029 42.736C51.361 42.7942 51.2961 42.8396 51.2157 42.858C50.6777 42.9843 50.1261 43.0817 49.5766 43.1479C49.5624 43.1498 49.5482 43.1504 49.534 43.1504V43.1504ZM52.6872 42.4111C52.5601 42.4111 52.4392 42.3412 52.3905 42.2272C52.3256 42.0788 52.4067 41.9109 52.571 41.8526C53.0637 41.6779 53.5497 41.4732 54.0154 41.2451C54.0634 41.2219 54.1148 41.2108 54.1662 41.2108C54.2797 41.2108 54.3892 41.266 54.4474 41.3628C54.5041 41.4591 54.4954 41.5719 54.4338 41.6577C54.4055 41.6969 54.3663 41.7306 54.3183 41.7546C53.8296 41.993 53.3199 42.2076 52.8035 42.3915C52.765 42.405 52.7257 42.4111 52.6872 42.4111V42.4111ZM55.5519 41.0104C55.4518 41.0104 55.3538 40.9675 55.2916 40.8884C55.1896 40.7578 55.2233 40.5782 55.3673 40.485C55.7986 40.2079 56.2156 39.9039 56.609 39.5802C56.6699 39.5299 56.7469 39.5054 56.8233 39.5054C56.9098 39.5054 56.9963 39.5373 57.0592 39.5998C57.1586 39.6991 57.1673 39.8444 57.0903 39.9517C57.0761 39.9719 57.0578 39.9915 57.0376 40.0087C56.6259 40.3477 56.1879 40.6665 55.7357 40.957C55.6803 40.9932 55.6154 41.0104 55.5519 41.0104V41.0104ZM57.9602 39.023C57.8865 39.023 57.8122 39.0003 57.752 38.9531C57.6189 38.8489 57.6054 38.6668 57.7182 38.5454C58.063 38.1825 58.3867 37.7957 58.6815 37.396C58.743 37.3121 58.8437 37.2673 58.9464 37.2673C59.0079 37.2673 59.0694 37.2833 59.1235 37.3164C59.2688 37.404 59.3087 37.5818 59.2141 37.7142L59.2114 37.7173C58.9025 38.1366 58.5632 38.5418 58.2022 38.9224C58.1387 38.9893 58.0494 39.023 57.9602 39.023V39.023ZM59.7697 36.5685C59.7217 36.5685 59.6724 36.5581 59.6257 36.5366C59.4689 36.4649 59.4061 36.2908 59.4858 36.1486C59.7251 35.7201 59.9387 35.2738 60.1199 34.8226C60.1672 34.7062 60.2895 34.6326 60.42 34.6326C60.4558 34.6326 60.4923 34.6381 60.5281 34.6504C60.6937 34.7049 60.7789 34.8704 60.7187 35.0206C60.5295 35.4933 60.3057 35.961 60.0543 36.4097C60.0489 36.4195 60.0435 36.4281 60.0374 36.4367C59.9772 36.5207 59.8752 36.5685 59.7697 36.5685V36.5685ZM60.8823 33.7922C60.8587 33.7922 60.835 33.7897 60.8107 33.7848C60.639 33.7486 60.5322 33.5935 60.5714 33.4378C60.6903 32.9701 60.7789 32.4907 60.8336 32.0132C60.8512 31.8648 60.9898 31.7545 61.1507 31.7545C61.1621 31.7545 61.173 31.7545 61.1838 31.7557C61.3588 31.7723 61.4866 31.9145 61.4677 32.0733C61.4102 32.5741 61.3176 33.0768 61.1932 33.5678C61.1845 33.6015 61.1696 33.6328 61.1493 33.6604C61.0912 33.7419 60.9905 33.7922 60.8823 33.7922" fill="url(#paint26_linear_381_8109)"/>
<path d="M61.2058 30.8418C61.0321 30.8418 60.8901 30.7155 60.8868 30.558C60.882 30.322 60.8692 30.0847 60.8496 29.8536C60.8361 29.6942 60.9679 29.5557 61.1429 29.5428C61.1511 29.5422 61.1592 29.5416 61.168 29.5416C61.3329 29.5416 61.4721 29.6569 61.4856 29.8089C61.5066 30.051 61.5194 30.2999 61.5249 30.5469C61.5255 30.607 61.5066 30.6628 61.4735 30.71C61.4174 30.7879 61.3214 30.8393 61.2119 30.8418C61.2099 30.8418 61.2078 30.8418 61.2058 30.8418" fill="url(#paint27_linear_381_8109)"/>
<path d="M57.1619 26.8411C57.1403 26.781 57.0801 26.7405 57.0112 26.7393L55.0469 26.7001C54.5751 25.9859 53.9742 25.3355 53.255 24.7801L53.5355 23.0177C53.5456 22.9558 53.5112 22.8951 53.4496 22.8663L51.3542 21.8886C51.2927 21.8597 51.2184 21.8696 51.1684 21.9131L49.7496 23.144C48.8337 22.9362 47.9009 22.8712 46.9856 22.9374L45.8088 21.5103C45.7676 21.4607 45.6959 21.4398 45.6304 21.4588L43.3863 22.1111C43.3207 22.1301 43.2754 22.1846 43.2741 22.2472L43.2308 24.0286C42.444 24.4565 41.7262 25.0014 41.1138 25.6537L39.1704 25.3993C39.1022 25.3907 39.0352 25.422 39.0041 25.4771L37.9254 27.3781C37.8936 27.4332 37.9044 27.5007 37.9524 27.546L39.3097 28.8327C39.0805 29.6634 39.0089 30.5099 39.0819 31.3394L37.5083 32.4066C37.4535 32.444 37.4306 32.509 37.4515 32.5684L38.1707 34.6042C38.1917 34.6637 38.2518 34.7042 38.3208 34.706L40.2851 34.7446C40.7575 35.4588 41.3578 36.1092 42.077 36.6646L41.7965 38.427C41.787 38.4889 41.8215 38.5496 41.8823 38.5784L43.9784 39.5561C44.0392 39.585 44.1142 39.5751 44.1636 39.5322L45.5824 38.3007C46.4983 38.5085 47.4318 38.5741 48.3463 38.5073L49.5231 39.9344C49.5643 39.9846 49.636 40.0055 49.7016 39.9859L51.9464 39.3336C52.0119 39.3146 52.0565 39.2601 52.0586 39.1975L52.1018 37.4161C52.8886 36.9882 53.6058 36.4433 54.2182 35.791L56.1615 36.0454C56.2298 36.0546 56.2967 36.0234 56.3285 35.9676L57.4066 34.0666C57.4384 34.0115 57.4276 33.944 57.3802 33.8987L56.0223 32.612C56.2514 31.7813 56.3237 30.9354 56.2501 30.1054L57.8236 29.0381C57.8791 29.0007 57.9021 28.9357 57.8811 28.8763L57.1619 26.8411" fill="#91B3FA"/>
<path d="M46.4879 31.9293C46.8434 32.2138 47.2997 32.3554 47.7728 32.3284C48.2453 32.3014 48.6786 32.1089 48.9915 31.7865C49.3045 31.464 49.4613 31.0503 49.4316 30.6218C49.4018 30.1927 49.1896 29.7997 48.834 29.5159C48.1006 28.9292 46.9772 28.993 46.3304 29.6587C46.2722 29.7188 46.2195 29.7813 46.1729 29.8469C45.7017 30.5041 45.82 31.396 46.4879 31.9293V31.9293ZM49.4701 32.169C49.0443 32.6073 48.4555 32.8691 47.8127 32.9058C47.1699 32.942 46.5494 32.7495 46.0661 32.3633C45.0691 31.5658 44.9731 30.1835 45.8518 29.2762C46.7319 28.3714 48.2588 28.2844 49.2558 29.0819C49.7391 29.4681 50.0278 30.002 50.0683 30.585C50.1008 31.0595 49.9669 31.5198 49.6864 31.9109C49.6222 32.0004 49.5499 32.0869 49.4701 32.169Z" fill="#BDD0FB"/>
<path d="M52.6631 33.704C52.7726 33.5508 52.8746 33.3908 52.9693 33.2246C53.1565 32.8955 53.3072 32.5479 53.4167 32.1917C53.4215 32.1758 53.4262 32.1598 53.4309 32.1439C53.4681 32.0195 53.41 31.8926 53.2971 31.8264C53.27 31.8098 53.239 31.7976 53.2058 31.7896C53.0362 31.7479 52.8618 31.8398 52.8151 31.9931C52.7165 32.3266 52.5772 32.6521 52.4021 32.9598C52.3927 32.977 52.3825 32.9941 52.3731 33.0107C51.9513 33.7365 51.3463 34.3391 50.6136 34.7823C50.2155 35.0226 49.7788 35.2157 49.3131 35.3555L49.3016 35.3585C49.2901 35.3622 49.2786 35.3653 49.2671 35.369C47.9017 35.7656 46.4471 35.6565 45.1723 35.0612C45.0074 34.9846 44.8479 34.9006 44.6944 34.8099C43.6616 34.2012 42.8978 33.2964 42.5165 32.2181C42.0792 30.9792 42.1995 29.6606 42.8559 28.5045C43.5122 27.3495 44.6255 26.4932 45.9909 26.0959C47.3563 25.6993 48.8109 25.8084 50.0857 26.4037C50.2479 26.4791 50.4054 26.5618 50.5575 26.6513C51.2159 27.04 51.7742 27.5549 52.1885 28.1606C52.2142 28.198 52.2474 28.2286 52.2859 28.2507C52.3859 28.3095 52.5191 28.315 52.6272 28.2537C52.7766 28.1691 52.8233 27.9914 52.73 27.8559C52.2663 27.1779 51.6424 26.6017 50.9056 26.167C50.7353 26.0665 50.5589 25.974 50.3777 25.8894C48.9508 25.223 47.3238 25.101 45.7962 25.5455C44.2686 25.9893 43.0221 26.945 42.2888 28.2396C41.5547 29.5331 41.4195 31.0086 41.9096 32.3946C42.3354 33.6004 43.1905 34.6131 44.3456 35.2942C44.5173 35.3953 44.6958 35.4891 44.8803 35.5755C47.6422 36.8647 51.0057 36.0169 52.6631 33.704" fill="#BDD0FB"/>
<path d="M122.825 53.3324L113.553 61.9336L124.675 59.2394L122.825 53.3324Z" fill="#91B3FA"/>
<path d="M177.984 56.8939L125.3 59.2123C123.947 59.2717 122.814 58.2934 122.814 57.0649V37.4081C122.814 35.2717 124.686 33.5216 127.04 33.4554L174.522 32.1227C178.058 32.1227 180.924 34.7225 180.924 37.9291V54.0948C180.924 55.5894 179.631 56.8209 177.984 56.8939" fill="#91B3FA"/>
<path d="M126.87 58.4233C126.031 58.4233 125.239 58.1358 124.627 57.6068C123.977 57.0435 123.618 56.2845 123.618 55.4686V37.7526C123.618 35.6647 125.464 33.9789 127.82 33.914L173.793 32.6554C177.278 32.6554 180.11 35.1627 180.11 38.2449V53.5186C180.11 54.9886 178.812 56.1957 177.154 56.2668L127.029 58.4197C126.976 58.4221 126.923 58.4233 126.87 58.4233V58.4233ZM173.797 32.8627L127.827 34.1212C125.595 34.1825 123.847 35.7775 123.847 37.7526V55.4686C123.847 56.2269 124.179 56.9331 124.785 57.4566C125.354 57.9483 126.088 58.2161 126.868 58.2161C126.918 58.2161 126.968 58.2149 127.019 58.2125L177.143 56.0596C178.679 55.994 179.882 54.8777 179.882 53.5186V38.2449C179.882 35.2767 177.152 32.8627 173.797 32.8627" fill="#EFF4FE"/>
<path d="M173.648 36.4456L131.521 37.8751C131.107 37.8892 130.781 38.1381 130.796 38.4293L130.811 38.7652C130.825 39.0533 131.166 39.2746 131.575 39.2611L173.704 37.8659C174.118 37.8524 174.444 37.6036 174.43 37.3118L174.413 36.9415C174.399 36.6528 174.058 36.4315 173.648 36.4456Z" fill="url(#paint28_linear_381_8109)"/>
<path d="M169.891 46.1167L127.764 47.5389C127.35 47.553 127.025 47.8104 127.039 48.112L127.056 48.4596C127.07 48.7581 127.412 48.988 127.821 48.9745L169.95 47.5879C170.364 47.5744 170.689 47.3176 170.675 47.0154L170.657 46.6316C170.643 46.3325 170.301 46.1026 169.891 46.1167Z" fill="url(#paint29_linear_381_8109)"/>
<path d="M174.812 50.1638L127.849 51.7717C127.388 51.7876 127.024 52.0488 127.039 52.3534L127.055 52.7047C127.069 53.0063 127.449 53.2368 127.905 53.2214L174.869 51.6497C175.331 51.6344 175.695 51.3732 175.681 51.0686L175.663 50.6811C175.649 50.3789 175.268 50.1484 174.812 50.1638" fill="url(#paint30_linear_381_8109)"/>
<path d="M150.577 42.1507L127.616 42.7576C127.391 42.7637 127.222 43.0445 127.241 43.3828L127.262 43.7733C127.28 44.1087 127.475 44.3741 127.698 44.3686L150.661 43.8021C150.887 43.7966 151.056 43.5159 151.038 43.1769L151.014 42.7459C150.996 42.4106 150.801 42.1446 150.577 42.1507Z" fill="url(#paint31_linear_381_8109)"/>
<path d="M175.849 41.4289L154.146 41.9929C153.933 41.9984 153.775 42.2792 153.793 42.6176L153.815 43.0081C153.833 43.3434 154.019 43.6094 154.229 43.6039L175.934 43.0804C176.147 43.0755 176.306 42.7947 176.287 42.4557L176.264 42.0248C176.245 41.6895 176.06 41.4234 175.849 41.4289Z" fill="url(#paint32_linear_381_8109)"/>
<path d="M42.8079 165.31C42.8079 165.31 42.374 167.54 42.1611 169.746C42.0773 170.609 42.8106 171.358 43.7651 171.394C47.0055 171.517 53.938 171.755 56.4254 171.654C56.7992 171.639 57.0439 171.292 56.9053 170.976C56.7891 170.712 56.5653 170.498 56.2808 170.38L44.8297 165.607L42.8079 165.31" fill="url(#paint33_linear_381_8109)"/>
<path d="M42.457 164L42.8058 166.667C42.8058 166.667 44.8113 167.514 46.1814 166.56L45.3507 163.588L42.457 164Z" fill="url(#paint34_linear_381_8109)"/>
<path d="M42.7379 113.863C42.5872 114.56 41.9288 148.617 45.9432 163.878C46.0081 164.128 45.8688 164.384 45.6079 164.481C44.9922 164.709 43.7849 165.039 42.3384 165.083C41.8909 165.097 41.4888 164.833 41.3624 164.444C40.2153 160.902 34.717 143.16 33.9998 126.212C33.1983 107.275 33.9998 125.568 33.9998 125.568L34.4698 113.862L42.7379 113.863" fill="url(#paint35_linear_381_8109)"/>
<path d="M29.6549 166.473C29.6549 166.473 28.9636 167.599 28.2943 170.59C28.1736 171.13 28.5897 171.647 29.1945 171.701C30.2646 171.797 31.912 171.919 33.2315 171.911C33.8399 171.907 34.3147 171.427 34.2413 170.879C34.0952 169.787 33.6398 167.996 32.233 166.6L29.6549 166.473" fill="url(#paint36_linear_381_8109)"/>
<path d="M29.0234 163.042L29.8387 167.075C29.8387 167.075 30.6448 167.618 32.2394 167.224L31.8502 162.885L29.0234 163.042Z" fill="url(#paint37_linear_381_8109)"/>
<path d="M26.8256 114.908C23.5426 132.877 27.5378 159.319 28.8851 164.494C28.9676 164.811 29.2496 165.054 29.6037 165.107C30.2052 165.197 31.1954 165.271 32.1716 165.014C32.5079 164.925 32.7442 164.65 32.7579 164.333C32.9387 160.149 32.6133 134.462 35.6724 124.31C35.8274 123.796 36.1741 123.347 36.6534 123.038L42.5901 119.211L43.0457 113.023L26.8256 114.908" fill="url(#paint38_linear_381_8109)"/>
<path d="M47.7541 80.8604C37.9158 80.7127 27.0599 83.2027 27.0599 83.2027C24.1273 98.7217 26.5472 116.622 26.5472 116.622C34.1639 118.434 42.7562 115.514 42.7562 115.514C44.0222 109.028 49.9286 90.7728 49.9286 90.7728C54.7358 90.2315 58.6955 88.9736 61.9569 87.3105C59.4694 84.696 58.2967 81.3686 57.787 79.4014C54.3086 80.3823 50.789 80.9058 47.7541 80.8604" fill="url(#paint39_linear_381_8109)"/>
<path d="M76.8125 67.718C75.8466 66.6593 74.6232 67.1601 74.6232 67.1601C73.1753 72.7067 65.5838 77.2037 57.7842 79.402C58.2938 81.3691 59.4666 84.6965 61.954 87.311C74.8976 80.7114 76.8125 67.718 76.8125 67.718Z" fill="url(#paint40_linear_381_8109)"/>
<path d="M76.6009 67.9867C76.7023 68.2785 75.5309 68.7224 74.8414 67.53C74.8178 66.9587 74.4345 64.5103 74.811 64.0445C76.8165 61.5648 80.7045 58.4563 80.7045 58.4563C81.3622 59.0447 80.8208 59.6222 80.8208 59.6222L78.9342 61.4042C79.329 62.051 79.8103 62.5965 80.0353 63.3787C80.2064 63.9709 80.1016 64.6041 79.7717 65.143C79.4412 65.6843 78.989 66.3874 78.5625 66.9379C77.754 67.9794 76.6009 67.9867 76.6009 67.9867Z" fill="url(#paint41_linear_381_8109)"/>
<path d="M78.0811 62.5617L76.3622 63.8833L75.8228 65.1989L77.3551 66.7412C77.3551 66.7412 77.8708 64.1304 78.2534 63.5652C78.6367 63.0006 78.4379 62.7272 78.0811 62.5617" fill="url(#paint42_linear_381_8109)"/>
<path d="M30.8508 91.843L27.0771 83.2032C27.0771 83.2032 17.8873 88.8662 16.376 96.0458C18.1124 96.1622 21.2721 96.5717 24.3649 97.9878C25.0446 94.5978 30.8508 91.843 30.8508 91.843" fill="url(#paint43_linear_381_8109)"/>
<path d="M38.8646 99.9717C38.8646 99.9717 28.5466 105.26 25.0651 100.745C24.3423 99.8068 24.1695 98.875 24.3476 97.9868C21.2548 96.5707 18.0951 96.1612 16.3586 96.0447C15.903 98.2093 16.144 100.512 17.5464 102.838C23.6446 112.955 40.23 102.279 40.23 102.279L38.8646 99.9717Z" fill="url(#paint44_linear_381_8109)"/>
<path d="M37.6393 106.664L43.2706 88.8301C43.3348 88.6278 43.5247 88.4801 43.7559 88.4556C44.7759 88.3477 47.7325 88.0449 51.1453 87.7831C55.257 87.4674 60.0318 87.2118 62.885 87.4294C63.2905 87.46 63.5359 87.8493 63.3554 88.1803C61.7325 91.1571 55.059 103.267 51.7171 107.233C51.6063 107.365 51.4346 107.442 51.2527 107.44L38.1875 107.33C37.807 107.326 37.5352 106.996 37.6393 106.664" fill="#91B3FA"/>
<path d="M51.7159 86.2358L55.7986 85.6191C56.0156 85.586 56.194 85.7748 56.1244 85.9642L55.7209 87.075C55.6857 87.1718 55.5924 87.2417 55.4809 87.2552L51.5523 87.7315C51.3496 87.756 51.1819 87.588 51.2286 87.4072L51.4787 86.4374C51.5057 86.3332 51.599 86.2535 51.7159 86.2358Z" fill="#BDD0FB"/>
<path d="M48.6536 89.3703L48.9902 87.7814C49.024 87.622 49.1687 87.5018 49.3464 87.4853L57.5929 86.7264C57.87 86.7006 58.0924 86.9318 58.0275 87.1776L57.503 89.157C57.4611 89.3157 57.309 89.4304 57.1299 89.4383L49.072 89.8061C48.8097 89.8184 48.6043 89.6038 48.6536 89.3703" fill="#BDD0FB"/>
<path d="M38.9885 102.353C38.9885 102.353 38.2044 99.4276 38.5208 98.3898C38.8371 97.352 39.4502 96.0181 41.4935 96.3142C43.5369 96.6109 45.9473 97.3918 45.9473 97.3918C45.9473 97.3918 45.8256 98.7435 44.273 98.307L45.2355 98.9832C45.2355 98.9832 45.0983 100.065 43.7863 99.4871L44.6819 100.383C44.6819 100.383 44.1189 101.272 43.1536 100.702C42.1884 100.132 41.7254 102.705 38.9885 102.353" fill="url(#paint45_linear_381_8109)"/>
<path d="M37.7921 73.6168L34.6615 81.8268C34.6097 81.9629 34.6713 82.1137 34.8102 82.1836C35.6635 82.6115 38.7377 83.8479 42.4425 81.7177C42.8285 81.4958 43.0914 81.1335 43.1502 80.7228L44.1642 73.6168H37.7921" fill="url(#paint46_linear_381_8109)"/>
<path d="M44.6076 66.0144C44.6076 66.0144 48.0454 71.8828 47.6047 74.2539C47.164 76.6244 42.9035 76.454 39.1832 74.5285L36.5835 68.1918L44.6076 66.0144" fill="url(#paint47_linear_381_8109)"/>
<path d="M39.3429 71.4173C39.4943 71.3566 39.5497 71.1887 39.4598 71.063C39.1841 70.6817 38.6676 69.9032 38.5034 69.2215C38.5034 69.2215 37.8849 68.8629 40.0763 68.3872C42.267 67.9115 45.5338 67.1735 46.2206 65.4822C46.8904 63.8332 45.131 59.6868 42.3245 62.9909C42.2177 63.1166 42.0088 63.119 41.902 62.9933C41.4417 62.4502 40.2324 61.3229 38.5527 62.0064C36.9812 62.6458 36.8041 63.6903 36.8257 64.2169C36.8325 64.3714 36.6797 64.4921 36.5114 64.4627C35.7171 64.3254 33.8103 64.2077 32.9203 65.9812C32.1873 67.4426 32.6638 68.2695 33.0976 68.6741C33.2383 68.8053 33.1767 69.0211 32.9839 69.0744C32.4617 69.2197 31.7873 69.6212 31.8548 70.7308C31.9482 72.2645 33.8392 72.1296 34.3776 72.0598C34.4659 72.0481 34.5547 72.0757 34.6145 72.1352C35.0761 72.5986 37.1562 74.5658 39.4071 74.803C39.6025 74.8238 39.7532 74.6491 39.6897 74.4805L38.715 71.9126C38.6697 71.7931 38.7325 71.6625 38.8603 71.611L39.3429 71.4173" fill="url(#paint48_linear_381_8109)"/>
<path d="M39.7407 71.7808C39.7407 71.7808 37.2931 70.2581 37.114 71.5405C36.9355 72.8229 39.3182 73.3985 40.4984 72.9204L39.7407 71.7808" fill="url(#paint49_linear_381_8109)"/>
<defs>
<linearGradient id="paint0_linear_381_8109" x1="210.91" y1="222.508" x2="63.6037" y2="20.7825" gradientUnits="userSpaceOnUse">
<stop stop-color="#DAE3FE"/>
<stop offset="1" stop-color="#E9EFFD"/>
</linearGradient>
<linearGradient id="paint1_linear_381_8109" x1="331.061" y1="-115.616" x2="11.8992" y2="184.351" gradientUnits="userSpaceOnUse">
<stop stop-color="#E1473D"/>
<stop offset="1" stop-color="#E9605A"/>
</linearGradient>
<linearGradient id="paint2_linear_381_8109" x1="381.822" y1="-61.5884" x2="62.6605" y2="238.38" gradientUnits="userSpaceOnUse">
<stop stop-color="#E1473D"/>
<stop offset="1" stop-color="#E9605A"/>
</linearGradient>
<linearGradient id="paint3_linear_381_8109" x1="6.05952" y1="140.557" x2="277.339" y2="-176.207" gradientUnits="userSpaceOnUse">
<stop stop-color="#FF928E"/>
<stop offset="1" stop-color="#FE7062"/>
</linearGradient>
<linearGradient id="paint4_linear_381_8109" x1="128.931" y1="120.376" x2="67.6761" y2="195.011" gradientUnits="userSpaceOnUse">
<stop stop-color="#FF928E"/>
<stop offset="1" stop-color="#FE7062"/>
</linearGradient>
<linearGradient id="paint5_linear_381_8109" x1="6.05866" y1="140.557" x2="277.339" y2="-176.207" gradientUnits="userSpaceOnUse">
<stop stop-color="#FFD7D5"/>
<stop offset="1" stop-color="#FFCAC5"/>
</linearGradient>
<linearGradient id="paint6_linear_381_8109" x1="6.05535" y1="140.559" x2="277.334" y2="-176.209" gradientUnits="userSpaceOnUse">
<stop stop-color="#FFD7D5"/>
<stop offset="1" stop-color="#FFCAC5"/>
</linearGradient>
<linearGradient id="paint7_linear_381_8109" x1="128.939" y1="120.377" x2="67.6853" y2="195.011" gradientUnits="userSpaceOnUse">
<stop stop-color="#FFD7D5"/>
<stop offset="1" stop-color="#FFCAC5"/>
</linearGradient>
<linearGradient id="paint8_linear_381_8109" x1="128.935" y1="120.376" x2="67.6804" y2="195.011" gradientUnits="userSpaceOnUse">
<stop stop-color="#FFD7D5"/>
<stop offset="1" stop-color="#FFCAC5"/>
</linearGradient>
<linearGradient id="paint9_linear_381_8109" x1="210.926" y1="222.508" x2="63.6198" y2="20.7838" gradientUnits="userSpaceOnUse">
<stop stop-color="#C4D5FD"/>
<stop offset="1" stop-color="#CEDDFC"/>
</linearGradient>
<linearGradient id="paint10_linear_381_8109" x1="210.924" y1="222.508" x2="63.6173" y2="20.7815" gradientUnits="userSpaceOnUse">
<stop stop-color="#C4D5FD"/>
<stop offset="1" stop-color="#CEDDFC"/>
</linearGradient>
<linearGradient id="paint11_linear_381_8109" x1="210.904" y1="222.509" x2="63.5958" y2="20.7836" gradientUnits="userSpaceOnUse">
<stop stop-color="#C4D5FD"/>
<stop offset="1" stop-color="#CEDDFC"/>
</linearGradient>
<linearGradient id="paint12_linear_381_8109" x1="210.912" y1="222.508" x2="63.605" y2="20.783" gradientUnits="userSpaceOnUse">
<stop stop-color="#C4D5FD"/>
<stop offset="1" stop-color="#CEDDFC"/>
</linearGradient>
<linearGradient id="paint13_linear_381_8109" x1="6.02711" y1="140.557" x2="277.307" y2="-176.208" gradientUnits="userSpaceOnUse">
<stop stop-color="#DE9CAF"/>
<stop offset="1" stop-color="#DD8490"/>
</linearGradient>
<linearGradient id="paint14_linear_381_8109" x1="6.03304" y1="140.554" x2="277.31" y2="-176.207" gradientUnits="userSpaceOnUse">
<stop stop-color="#DE9CAF"/>
<stop offset="1" stop-color="#DD8490"/>
</linearGradient>
<linearGradient id="paint15_linear_381_8109" x1="6.04895" y1="140.559" x2="277.331" y2="-176.205" gradientUnits="userSpaceOnUse">
<stop stop-color="#DE9CAF"/>
<stop offset="1" stop-color="#DD8490"/>
</linearGradient>
<linearGradient id="paint16_linear_381_8109" x1="210.92" y1="222.51" x2="63.6139" y2="20.7844" gradientUnits="userSpaceOnUse">
<stop stop-color="#C4D5FD"/>
<stop offset="1" stop-color="#CEDDFC"/>
</linearGradient>
<linearGradient id="paint17_linear_381_8109" x1="6.03918" y1="140.556" x2="277.316" y2="-176.208" gradientUnits="userSpaceOnUse">
<stop stop-color="#DE9CAF"/>
<stop offset="1" stop-color="#DD8490"/>
</linearGradient>
<linearGradient id="paint18_linear_381_8109" x1="6.61854" y1="139.896" x2="276.668" y2="-173.413" gradientUnits="userSpaceOnUse">
<stop stop-color="#DECCE0"/>
<stop offset="1" stop-color="#DEC3D5"/>
</linearGradient>
<linearGradient id="paint19_linear_381_8109" x1="210.901" y1="222.509" x2="63.5945" y2="20.7835" gradientUnits="userSpaceOnUse">
<stop stop-color="#C4D5FD"/>
<stop offset="1" stop-color="#CEDDFC"/>
</linearGradient>
<linearGradient id="paint20_linear_381_8109" x1="6.04966" y1="140.555" x2="277.328" y2="-176.208" gradientUnits="userSpaceOnUse">
<stop stop-color="#DE9CAF"/>
<stop offset="1" stop-color="#DD8490"/>
</linearGradient>
<linearGradient id="paint21_linear_381_8109" x1="210.927" y1="222.508" x2="63.6201" y2="20.783" gradientUnits="userSpaceOnUse">
<stop stop-color="#C4D5FD"/>
<stop offset="1" stop-color="#CEDDFC"/>
</linearGradient>
<linearGradient id="paint22_linear_381_8109" x1="6.02281" y1="140.557" x2="277.301" y2="-176.208" gradientUnits="userSpaceOnUse">
<stop stop-color="#DE9CAF"/>
<stop offset="1" stop-color="#DD8490"/>
</linearGradient>
<linearGradient id="paint23_linear_381_8109" x1="210.921" y1="222.508" x2="63.6144" y2="20.7831" gradientUnits="userSpaceOnUse">
<stop stop-color="#C4D5FD"/>
<stop offset="1" stop-color="#CEDDFC"/>
</linearGradient>
<linearGradient id="paint24_linear_381_8109" x1="6.04885" y1="140.557" x2="277.327" y2="-176.207" gradientUnits="userSpaceOnUse">
<stop stop-color="#DE9CAF"/>
<stop offset="1" stop-color="#DD8490"/>
</linearGradient>
<linearGradient id="paint25_linear_381_8109" x1="6.16143" y1="140.299" x2="276.725" y2="-175.617" gradientUnits="userSpaceOnUse">
<stop stop-color="#DECCE0"/>
<stop offset="1" stop-color="#DEC3D5"/>
</linearGradient>
<linearGradient id="paint26_linear_381_8109" x1="6.0477" y1="140.557" x2="277.328" y2="-176.207" gradientUnits="userSpaceOnUse">
<stop stop-color="#DE9CAF"/>
<stop offset="1" stop-color="#DD8490"/>
</linearGradient>
<linearGradient id="paint27_linear_381_8109" x1="6.03164" y1="140.557" x2="277.312" y2="-176.208" gradientUnits="userSpaceOnUse">
<stop stop-color="#DE9CAF"/>
<stop offset="1" stop-color="#DD8490"/>
</linearGradient>
<linearGradient id="paint28_linear_381_8109" x1="130.795" y1="37.8531" x2="174.431" y2="37.8531" gradientUnits="userSpaceOnUse">
<stop stop-color="#DAE3FE"/>
<stop offset="1" stop-color="#E9EFFD"/>
</linearGradient>
<linearGradient id="paint29_linear_381_8109" x1="127.039" y1="47.5456" x2="170.676" y2="47.5456" gradientUnits="userSpaceOnUse">
<stop stop-color="#DAE3FE"/>
<stop offset="1" stop-color="#E9EFFD"/>
</linearGradient>
<linearGradient id="paint30_linear_381_8109" x1="127.038" y1="51.6926" x2="175.681" y2="51.6926" gradientUnits="userSpaceOnUse">
<stop stop-color="#DAE3FE"/>
<stop offset="1" stop-color="#E9EFFD"/>
</linearGradient>
<linearGradient id="paint31_linear_381_8109" x1="127.24" y1="43.2596" x2="151.039" y2="43.2596" gradientUnits="userSpaceOnUse">
<stop stop-color="#DAE3FE"/>
<stop offset="1" stop-color="#E9EFFD"/>
</linearGradient>
<linearGradient id="paint32_linear_381_8109" x1="153.792" y1="42.5164" x2="176.289" y2="42.5164" gradientUnits="userSpaceOnUse">
<stop stop-color="#DAE3FE"/>
<stop offset="1" stop-color="#E9EFFD"/>
</linearGradient>
<linearGradient id="paint33_linear_381_8109" x1="56.0624" y1="162.228" x2="18.5216" y2="207.254" gradientUnits="userSpaceOnUse">
<stop stop-color="#09005D"/>
<stop offset="1" stop-color="#1A0F91"/>
</linearGradient>
<linearGradient id="paint34_linear_381_8109" x1="42.457" y1="165.301" x2="46.1816" y2="165.301" gradientUnits="userSpaceOnUse">
<stop stop-color="#FEBBBA"/>
<stop offset="1" stop-color="#FF928E"/>
</linearGradient>
<linearGradient id="paint35_linear_381_8109" x1="59.3876" y1="115.45" x2="28.0828" y2="162.236" gradientUnits="userSpaceOnUse">
<stop stop-color="#09005D"/>
<stop offset="1" stop-color="#1A0F91"/>
</linearGradient>
<linearGradient id="paint36_linear_381_8109" x1="46.675" y1="154.386" x2="9.13428" y2="199.411" gradientUnits="userSpaceOnUse">
<stop stop-color="#09005D"/>
<stop offset="1" stop-color="#1A0F91"/>
</linearGradient>
<linearGradient id="paint37_linear_381_8109" x1="29.0234" y1="165.126" x2="32.2393" y2="165.126" gradientUnits="userSpaceOnUse">
<stop stop-color="#FEBBBA"/>
<stop offset="1" stop-color="#FF928E"/>
</linearGradient>
<linearGradient id="paint38_linear_381_8109" x1="53.0043" y1="111.195" x2="21.6996" y2="157.98" gradientUnits="userSpaceOnUse">
<stop stop-color="#09005D"/>
<stop offset="1" stop-color="#1A0F91"/>
</linearGradient>
<linearGradient id="paint39_linear_381_8109" x1="40.3978" y1="91.68" x2="89.3733" y2="-1.36143" gradientUnits="userSpaceOnUse">
<stop stop-color="#4F52FF"/>
<stop offset="1" stop-color="#4042E2"/>
</linearGradient>
<linearGradient id="paint40_linear_381_8109" x1="73.879" y1="57.0706" x2="68.3672" y2="74.435" gradientUnits="userSpaceOnUse">
<stop stop-color="#FEBBBA"/>
<stop offset="1" stop-color="#FF928E"/>
</linearGradient>
<linearGradient id="paint41_linear_381_8109" x1="79.5182" y1="58.8529" x2="74.0065" y2="76.2173" gradientUnits="userSpaceOnUse">
<stop stop-color="#FEBBBA"/>
<stop offset="1" stop-color="#FF928E"/>
</linearGradient>
<linearGradient id="paint42_linear_381_8109" x1="74.4418" y1="69.7333" x2="78.6609" y2="60.3488" gradientUnits="userSpaceOnUse">
<stop stop-color="#FEBBBA"/>
<stop offset="1" stop-color="#FF928E"/>
</linearGradient>
<linearGradient id="paint43_linear_381_8109" x1="28.583" y1="85.4523" x2="77.5585" y2="-7.58917" gradientUnits="userSpaceOnUse">
<stop stop-color="#4F52FF"/>
<stop offset="1" stop-color="#4042E2"/>
</linearGradient>
<linearGradient id="paint44_linear_381_8109" x1="16.1492" y1="101.619" x2="40.2298" y2="101.619" gradientUnits="userSpaceOnUse">
<stop stop-color="#FEBBBA"/>
<stop offset="1" stop-color="#FF928E"/>
</linearGradient>
<linearGradient id="paint45_linear_381_8109" x1="38.4457" y1="99.3296" x2="45.9478" y2="99.3296" gradientUnits="userSpaceOnUse">
<stop stop-color="#FEBBBA"/>
<stop offset="1" stop-color="#FF928E"/>
</linearGradient>
<linearGradient id="paint46_linear_381_8109" x1="34.6433" y1="78.2732" x2="44.1639" y2="78.2732" gradientUnits="userSpaceOnUse">
<stop stop-color="#FEBBBA"/>
<stop offset="1" stop-color="#FF928E"/>
</linearGradient>
<linearGradient id="paint47_linear_381_8109" x1="46.4326" y1="72.7814" x2="36.5434" y2="66.1306" gradientUnits="userSpaceOnUse">
<stop stop-color="#FEBBBA"/>
<stop offset="1" stop-color="#FF928E"/>
</linearGradient>
<linearGradient id="paint48_linear_381_8109" x1="30.4188" y1="60.8876" x2="42.9067" y2="71.7635" gradientUnits="userSpaceOnUse">
<stop stop-color="#09005D"/>
<stop offset="1" stop-color="#1A0F91"/>
</linearGradient>
<linearGradient id="paint49_linear_381_8109" x1="43.6841" y1="74.9403" x2="34.7867" y2="68.9563" gradientUnits="userSpaceOnUse">
<stop stop-color="#FEBBBA"/>
<stop offset="1" stop-color="#FF928E"/>
</linearGradient>
</defs>
</svg>
