<svg width="35" height="36" viewBox="0 0 35 36" fill="none" xmlns="http://www.w3.org/2000/svg">
<path d="M27.0953 35.2706L7.76017 35.2889C3.50643 35.2928 0.0232055 31.8164 0.0183717 27.5626L3.22299e-06 8.22746C-0.00386381 3.97372 3.4726 0.490491 7.72633 0.485657L27.0615 0.467288C31.3152 0.463421 34.7985 3.93988 34.8033 8.19362L34.8217 27.5288C34.8265 31.7835 31.3491 35.2667 27.0953 35.2706Z" fill="#4C4848"/>
<path d="M27.0953 35.2706L7.76017 35.2889C3.50643 35.2928 0.0232055 31.8164 0.0183717 27.5626L3.22299e-06 8.22746C-0.00386381 3.97372 3.4726 0.490491 7.72633 0.485657L27.0615 0.467288C31.3152 0.463421 34.7985 3.93988 34.8033 8.19362L34.8217 27.5288C34.8265 31.7835 31.3491 35.2667 27.0953 35.2706Z" fill="#4C4848"/>
<path d="M17.4118 24.6459C13.6811 24.6459 10.6445 21.6103 10.6445 17.8786C10.6445 14.1469 13.6811 11.1113 17.4118 11.1113C21.1426 11.1113 24.1791 14.1469 24.1791 17.8786C24.1791 21.6103 21.1426 24.6459 17.4118 24.6459ZM17.4118 13.0448C14.7465 13.0448 12.578 15.2133 12.578 17.8786C12.578 20.544 14.7465 22.7124 17.4118 22.7124C20.0772 22.7124 22.2456 20.544 22.2456 17.8786C22.2456 15.2133 20.0772 13.0448 17.4118 13.0448Z" fill="white"/>
<path d="M24.6626 12.0796C25.4638 12.0796 26.1133 11.4301 26.1133 10.6289C26.1133 9.82772 25.4638 9.17822 24.6626 9.17822C23.8614 9.17822 23.2119 9.82772 23.2119 10.6289C23.2119 11.4301 23.8614 12.0796 24.6626 12.0796Z" fill="white"/>
<path d="M23.2121 30.4465H11.6111C7.88034 30.4465 4.84375 27.4109 4.84375 23.6792L4.84375 12.0781C4.84375 8.34641 7.88034 5.31079 11.6111 5.31079L23.2121 5.31079C26.9429 5.31079 29.9795 8.34641 29.9795 12.0781V23.6792C29.9795 27.4109 26.9429 30.4465 23.2121 30.4465ZM11.6111 7.24431C8.9457 7.24431 6.77727 9.41274 6.77727 12.0781L6.77727 23.6792C6.77727 26.3445 8.9457 28.513 11.6111 28.513H23.2121C25.8775 28.513 28.0459 26.3445 28.0459 23.6792V12.0781C28.0459 9.41274 25.8775 7.24431 23.2121 7.24431L11.6111 7.24431Z" fill="white"/>
</svg>
