<svg width="69" height="68" viewBox="0 0 69 68" fill="#17212B" xmlns="http://www.w3.org/2000/svg">
<path d="M53.6546 67.6944L16.0466 67.7301C7.77285 67.7376 0.997773 60.9757 0.988371 52.702L0.952643 15.094C0.945121 6.82022 7.70704 0.045136 15.9808 0.035734L53.5888 6.2689e-06C61.8625 -0.00751533 68.6376 6.7544 68.647 15.0282L68.6828 52.6362C68.6922 60.9118 61.9284 67.6869 53.6546 67.6944Z" fill="#E0F7FF"/>
<path d="M34.862 47.3256C27.6056 47.3256 21.6992 41.4211 21.6992 34.1628C21.6992 26.9045 27.6056 21 34.862 21C42.1185 21 48.0248 26.9045 48.0248 34.1628C48.0248 41.4211 42.1185 47.3256 34.862 47.3256ZM34.862 24.7608C29.6778 24.7608 25.46 28.9785 25.46 34.1628C25.46 39.3471 29.6778 43.5648 34.862 43.5648C40.0463 43.5648 44.264 39.3471 44.264 34.1628C44.264 28.9785 40.0463 24.7608 34.862 24.7608Z" />
<path d="M48.9212 22.5816C50.479 22.5816 51.7418 21.3188 51.7418 19.761C51.7418 18.2033 50.479 16.9404 48.9212 16.9404C47.3634 16.9404 46.1006 18.2033 46.1006 19.761C46.1006 21.3188 47.3634 22.5816 48.9212 22.5816Z" />
<path d="M46.1011 58.3103H23.5363C16.2799 58.3103 10.3735 52.4058 10.3735 45.1475V22.5827C10.3735 15.3244 16.2799 9.41992 23.5363 9.41992H46.1011C53.3576 9.41992 59.2639 15.3244 59.2639 22.5827V45.1475C59.2639 52.4058 53.3576 58.3103 46.1011 58.3103ZM23.5363 13.1807C18.3521 13.1807 14.1343 17.3985 14.1343 22.5827V45.1475C14.1343 50.3318 18.3521 54.5495 23.5363 54.5495H46.1011C51.2854 54.5495 55.5031 50.3318 55.5031 45.1475V22.5827C55.5031 17.3985 51.2854 13.1807 46.1011 13.1807H23.5363Z" />
</svg>
