<svg width="33" height="54" viewBox="0 0 33 54" fill="none" xmlns="http://www.w3.org/2000/svg">
<path d="M0.126162 13.7531C0.11832 13.9474 0.150236 14.1412 0.219954 14.3227C0.289673 14.5042 0.395724 14.6695 0.531606 14.8085C0.667488 14.9476 0.830338 15.0574 1.01017 15.1313C1.19 15.2051 1.38303 15.2415 1.57741 15.2381H6.53866C7.37229 15.2381 8.03041 14.5631 8.14179 13.7363C8.67841 9.7875 11.3885 6.912 16.2182 6.912C20.3424 6.912 24.1224 8.97413 24.1224 13.9388C24.1224 17.7593 21.8679 19.5142 18.3174 22.1873C14.2674 25.1302 11.0612 28.566 11.2907 34.1415L11.3075 35.4442C11.3177 36.2677 11.9893 36.9293 12.8128 36.9293H17.6897C18.5233 36.9293 19.1949 36.2542 19.1949 35.424V34.7895C19.1949 30.4762 20.8385 29.214 25.2699 25.8559C28.9352 23.0681 32.7523 19.9732 32.7523 13.4797C32.7523 4.39087 25.0775 0 16.6738 0C9.05304 0 0.699912 3.55387 0.129537 13.7531H0.126162ZM9.49516 48.4245C9.49516 51.6307 12.0534 54 15.5702 54C19.232 54 21.7532 51.6307 21.7532 48.4245C21.7532 45.1001 19.232 42.7714 15.5668 42.7714C12.0568 42.7714 9.49516 45.1001 9.49516 48.4245Z" fill="white"/>
</svg>
