<svg width="69" height="68" viewBox="0 0 35 35" fill="#17212B" xmlns="http://www.w3.org/2000/svg">
<path d="M17.4108 0C7.79483 0 0 7.79483 0 17.4108C0 27.0268 7.79483 34.8217 17.4108 34.8217C27.0268 34.8217 34.8217 27.0268 34.8217 17.4108C34.8217 7.79483 27.0268 0 17.4108 0Z" fill="#E0F7FF"/>
<path opacity="0.05" d="M22.6342 26.9873V19.1524C22.6342 18.1922 21.8533 17.4113 20.8931 17.4113C19.9329 17.4113 19.152 18.1922 19.152 19.1524V26.9873H13.9288V12.1881H19.152V13.0821C20.0574 12.5006 21.1125 12.1881 22.1989 12.1881C25.3189 12.1881 27.8574 14.7266 27.8574 17.8466V26.9873H22.6342ZM7.83496 26.9873L7.83496 12.1881H10.417C8.92053 12.1881 7.83496 11.0895 7.83496 9.5756C7.83496 8.0626 8.93794 6.96484 10.4562 6.96484C11.9326 6.96484 13.0269 8.05476 13.0582 9.55819C13.0582 11.0851 11.9552 12.1881 10.4361 12.1881H13.0582V26.9873H7.83496Z" fill="#EAEAEA"/>
<path opacity="0.07" d="M23.0687 26.5529V19.1533C23.0687 17.9537 22.0929 16.977 20.8924 16.977C19.6919 16.977 18.716 17.9537 18.716 19.1533V26.5529H14.3633V12.6243H18.716V13.9597C19.6649 13.1091 20.9028 12.6243 22.1982 12.6243C25.0788 12.6243 27.4215 14.9669 27.4215 17.8475V26.5529H23.0687ZM8.26953 26.5529L8.26953 12.6243H12.6222V26.5529H8.26953ZM10.4163 11.7537C9.17228 11.7537 8.26953 10.8379 8.26953 9.57648C8.26953 8.31594 9.18882 7.401 10.4555 7.401C11.7056 7.401 12.5961 8.29157 12.6222 9.56778C12.6222 10.8379 11.7021 11.7537 10.4354 11.7537H10.4163Z" fill="#EAEAEA"/>
<path d="M8.70508 13.0578H12.1872V26.116H8.70508L8.70508 13.0578ZM10.4357 11.3168H10.4166C9.37714 11.3168 8.70508 10.542 8.70508 9.57481C8.70508 8.58674 9.39803 7.83459 10.4557 7.83459C11.5152 7.83459 12.1672 8.58674 12.1872 9.57481C12.1872 10.542 11.5152 11.3168 10.4357 11.3168ZM26.9865 17.8458C26.9865 15.2011 24.8432 13.0578 22.1985 13.0578C20.5775 13.0578 19.1472 13.8657 18.281 15.0984V13.0578H14.7989V26.116H18.281V19.1516C18.281 17.7092 19.4502 16.54 20.8927 16.54C22.3352 16.54 23.5043 17.7092 23.5043 19.1516V26.116H26.9865C26.9865 26.116 26.9865 18.2123 26.9865 17.8458Z" fill="#373737"/>
</svg>
