<svg width="68" height="68" viewBox="0 0 68 68" fill="none" xmlns="http://www.w3.org/2000/svg">
<path d="M33.8651 0C15.1614 0 0 15.1614 0 33.8651C0 52.5687 15.1614 67.7301 33.8651 67.7301C52.5687 67.7301 67.7301 52.5687 67.7301 33.8651C67.7301 15.1614 52.5687 0 33.8651 0Z" fill="#E0F7FF"/>
<path opacity="0.05" d="M44.026 52.4888V37.2495C44.026 35.3818 42.5072 33.863 40.6395 33.863C38.7719 33.863 37.253 35.3818 37.253 37.2495V52.4888H27.0935V23.7035H37.253V25.4424C39.014 24.3113 41.0662 23.7035 43.1794 23.7035C49.248 23.7035 54.1856 28.641 54.1856 34.7096V52.4888H44.026ZM15.2407 52.4888V23.7035H20.2629C17.3522 23.7035 15.2407 21.5666 15.2407 18.622C15.2407 15.6791 17.3861 13.5439 20.3391 13.5439C23.2109 13.5439 25.3393 15.6639 25.4002 18.5881C25.4002 21.5581 23.2549 23.7035 20.3002 23.7035H25.4002V52.4888H15.2407Z" fill="black"/>
<path opacity="0.07" d="M44.8713 51.6432V37.2505C44.8713 34.9172 42.9731 33.0174 40.6381 33.0174C38.3031 33.0174 36.405 34.9172 36.405 37.2505V51.6432H27.9387V24.5511H36.405V27.1486C38.2506 25.4943 40.6584 24.5511 43.178 24.5511C48.781 24.5511 53.3375 29.1077 53.3375 34.7106V51.6432H44.8713ZM16.0859 51.6432V24.5511H24.5522V51.6432H16.0859ZM20.2615 22.8579C17.8418 22.8579 16.0859 21.0766 16.0859 18.623C16.0859 16.1712 17.874 14.3916 20.3377 14.3916C22.7692 14.3916 24.5014 16.1238 24.5522 18.6061C24.5522 21.0766 22.7624 22.8579 20.2988 22.8579H20.2615Z" fill="black"/>
<path d="M16.9326 25.3978H23.7056V50.7966H16.9326V25.3978ZM20.2988 22.0113H20.2616C18.2398 22.0113 16.9326 20.5043 16.9326 18.6231C16.9326 16.7013 18.2804 15.2383 20.3377 15.2383C22.3984 15.2383 23.6667 16.7013 23.7056 18.6231C23.7056 20.5043 22.3984 22.0113 20.2988 22.0113ZM52.4909 34.7107C52.4909 29.5666 48.3221 25.3978 43.178 25.3978C40.0252 25.3978 37.2432 26.9691 35.5584 29.3668V25.3978H28.7854V50.7966H35.5584V37.2506C35.5584 34.4449 37.8324 32.1708 40.6382 32.1708C43.4439 32.1708 45.7179 34.4449 45.7179 37.2506V50.7966H52.4909C52.4909 50.7966 52.4909 35.4236 52.4909 34.7107Z" fill="#17212B"/>
</svg>
