<svg width="69" height="68" viewBox="0 0 22 22" fill="none" xmlns="http://www.w3.org/2000/svg">
<path d="M10.9563 0C4.90515 0 0 4.90515 0 10.9563C0 17.0075 4.90515 21.9127 10.9563 21.9127C17.0075 21.9127 21.9127 17.0075 21.9127 10.9563C21.9127 4.90515 17.0075 0 10.9563 0Z" fill="#E1F7FF"/>
<path opacity="0.05" d="M14.2504 16.9826V12.0523C14.2504 11.448 13.759 10.9566 13.1548 10.9566C12.5505 10.9566 12.0591 11.448 12.0591 12.0523V16.9826H8.77222V7.66972H12.0591V8.23232C12.6289 7.86638 13.2928 7.66972 13.9765 7.66972C15.9399 7.66972 17.5373 9.26715 17.5373 11.2305V16.9826H14.2504ZM4.9375 16.9826V7.66972H6.56233C5.62063 7.66972 4.9375 6.97837 4.9375 6.02572C4.9375 5.07361 5.63158 4.38281 6.58698 4.38281C7.51608 4.38281 8.20468 5.06868 8.2244 6.01476C8.2244 6.97563 7.53032 7.66972 6.57438 7.66972H8.2244V16.9826H4.9375Z" fill="black"/>
<path opacity="0.07" d="M14.5238 16.7077V12.0513C14.5238 11.2964 13.9097 10.6818 13.1543 10.6818C12.3988 10.6818 11.7847 11.2964 11.7847 12.0513V16.7077H9.04566V7.94267H11.7847V8.78302C12.3819 8.2478 13.1609 7.94267 13.976 7.94267C15.7887 7.94267 17.2629 9.41684 17.2629 11.2296V16.7077H14.5238ZM5.21094 16.7077V7.94267H7.95002V16.7077H5.21094ZM6.56185 7.39485C5.77902 7.39485 5.21094 6.81854 5.21094 6.02476C5.21094 5.23152 5.78943 4.65576 6.58651 4.65576C7.37317 4.65576 7.93359 5.21618 7.95002 6.01928C7.95002 6.81854 7.37098 7.39485 6.57391 7.39485H6.56185Z" fill="black"/>
<path d="M5.47656 8.2161H7.66783V16.4334H5.47656V8.2161ZM6.56562 7.12047H6.55357C5.89948 7.12047 5.47656 6.63291 5.47656 6.02429C5.47656 5.40251 5.91262 4.9292 6.57822 4.9292C7.24492 4.9292 7.65523 5.40251 7.66783 6.02429C7.66783 6.63291 7.24492 7.12047 6.56562 7.12047ZM16.9807 11.2291C16.9807 9.56483 15.632 8.2161 13.9677 8.2161C12.9477 8.2161 12.0476 8.72448 11.5026 9.50019V8.2161H9.31128V16.4334H11.5026V12.0508C11.5026 11.1431 12.2383 10.4074 13.146 10.4074C14.0537 10.4074 14.7895 11.1431 14.7895 12.0508V16.4334H16.9807C16.9807 16.4334 16.9807 11.4597 16.9807 11.2291Z" fill="#17212B"/>
</svg>
