<svg width="41" height="59" viewBox="0 0 41 59" fill="none" xmlns="http://www.w3.org/2000/svg">
<path d="M0.527074 15.2261C0.517361 15.4333 0.55689 15.64 0.643236 15.8335C0.729583 16.027 0.860928 16.2034 1.02922 16.3516C1.19751 16.4999 1.3992 16.617 1.62192 16.6958C1.84465 16.7746 2.08371 16.8134 2.32446 16.8098H8.46899C9.50144 16.8098 10.3165 16.0899 10.4545 15.2081C11.1191 10.997 14.4756 7.93038 20.4571 7.93038C25.565 7.93038 30.2466 10.1295 30.2466 15.4241C30.2466 19.4984 27.4544 21.37 23.057 24.2207C18.0411 27.3592 14.0701 31.0233 14.3544 36.9693L14.3753 38.3586C14.3878 39.2368 15.2196 39.9423 16.2395 39.9423H22.2796C23.312 39.9423 24.1438 39.2224 24.1438 38.337V37.6603C24.1438 33.0605 26.1795 31.7143 31.6678 28.1331C36.2072 25.1601 40.9347 21.8595 40.9347 14.9346C40.9347 5.24173 31.4295 0.559082 21.0214 0.559082C11.5831 0.559082 1.23767 4.34911 0.531254 15.2261H0.527074ZM12.1306 52.2014C12.1306 55.6207 15.299 58.1474 19.6546 58.1474C24.1898 58.1474 27.3122 55.6207 27.3122 52.2014C27.3122 48.6561 24.1898 46.1726 19.6504 46.1726C15.3032 46.1726 12.1306 48.6561 12.1306 52.2014Z" fill="#4F4F4F"/>
</svg>
