<svg width="1920" height="1261" viewBox="0 0 1920 1261" fill="none" xmlns="http://www.w3.org/2000/svg">
<path d="M1927.53 452.777C1898.73 426.325 1829.9 403.576 1784.9 524.198C1768.16 505.681 1725.04 474.203 1686.47 496.423C1669.06 465.342 1614.56 417.86 1535.82 476.584C1518 442.602 1486 455.602 1481.35 413.39C1481.58 398.102 1481.58 388.102 1481.58 380.022C1466.18 389.28 1428.15 402.242 1399.22 380.022C1398.55 382.667 1401.21 391.015 1398 392.602C1399.81 394.763 1397.86 408.102 1394.5 415.102C1377 451.602 1354 440.102 1340 477.602C1325 462.602 1216 476.584 1204.37 524.198C1188.3 514.94 1149.73 501.978 1124.02 524.198C1068.44 503.036 959.302 490.471 967.337 609.506C958.632 615.458 941.223 632.916 941.223 655.136C923.814 628.023 877.746 577.367 832.75 591.651C801.279 550.65 721.866 496.82 655.979 609.506C639.239 616.78 606.161 636.091 607.768 655.136C608.165 659.83 608.092 659.51 607.32 656.109C604.177 642.26 589.436 577.316 547.506 591.651C516.035 528.827 424.168 436.905 308.463 571.812C294.402 565.199 265.878 555.94 264.271 571.812C263.441 580.005 258.157 573.987 250.825 565.635C240.404 553.764 225.843 537.178 214.051 549.989C213.382 509.649 184.724 433.731 75.4469 452.777C41.9675 471.293 -25.393 516.659 -27 549.989V754.982C-26.6445 755.286 -26.2881 755.589 -25.9309 755.892V1125.66C16.8581 1152.21 119.153 1175.05 186.023 1053.97C210.901 1072.56 274.984 1104.15 332.302 1081.85C358.174 1113.05 439.175 1160.71 556.198 1101.76C571.124 1133.63 625.456 1190.18 723.373 1161.51C783.078 1203.99 918.61 1256.3 983.092 1125.66C1013.94 1119.02 1064.21 1234.17 1042.71 1192.75C1066.59 1202.04 1166.16 1215.06 1204.37 1192.75C1286.96 1213.99 1406.53 1312.24 1394.59 1192.75C1407.53 1186.78 1481.35 1183.81 1481.35 1161.51C1507.22 1188.72 1498.63 1207.09 1565.5 1192.75C1612.27 1233.91 1837.48 1315.8 1935.39 1202.69C1960.27 1195.39 1937.78 941.655 1935.39 922.537V689.641C1932.79 690.139 1930.16 690.637 1927.53 691.137V452.777Z" fill="url(#paint0_linear_175_1973)"/>
<path d="M1312.73 438.516L1314.79 362.201L1370.16 286.202L1397.14 327.474L1333.58 441.961L1325.33 445.047L1312.73 438.516Z" fill="#CA2C31"/>
<path d="M1331.1 365.581L1325.73 445.173L1371.71 430.328L1395.91 360.379L1384.91 348.936L1369.43 313.397L1331.1 365.581Z" fill="#A02422"/>
<path d="M1497.3 336.853L1485.32 365.545L1505.47 425.349C1505.47 425.349 1558.93 446.757 1559.7 446.019C1560.47 445.281 1570.92 436.706 1570.92 436.706L1568.33 364.867L1513.63 290.499L1497.3 336.853Z" fill="#A02422"/>
<path d="M1506.37 386.718C1506.37 386.718 1515.58 373.388 1520 361.659C1524.42 349.93 1528.91 334.437 1528.91 334.437L1556.2 370.207L1559.6 446.017C1559.6 446.017 1556.51 445.627 1537.96 438.343C1523.17 432.522 1517.94 430.395 1517.94 430.395L1506.37 386.718Z" fill="#CA2C31"/>
<path d="M1397.14 369.865C1397.14 369.865 1396.06 383.684 1397.07 390.059C1398.07 396.433 1398.4 396.769 1399.67 397.759C1400.95 398.749 1415.86 408.739 1438.01 408.774C1465.2 408.812 1479.54 398.526 1481.37 396.772C1483.19 395.019 1482.23 369.768 1482.23 369.768L1397.14 369.865Z" fill="#858585"/>
<path d="M1468.88 378.451C1468.88 378.451 1488.6 374.766 1502.32 348.461C1521.08 312.511 1521.38 272.15 1521.26 221.66C1521.13 172.936 1511.21 121.853 1511.21 121.853L1450.97 87.7665L1468.88 378.451Z" fill="#437687"/>
<path d="M1486.63 311.011L1480 297.442L1489.47 290.59C1489.47 290.59 1498.72 287.476 1505.49 285.161C1512.27 282.846 1519.88 278.711 1519.88 278.711L1517.65 300.157C1517.65 300.157 1508.82 303.938 1502.11 306.419C1494.55 309.213 1486.63 311.011 1486.63 311.011Z" fill="#3F545F"/>
<path d="M1377.74 119.353C1377.74 119.353 1367.53 154.93 1364.55 218.045C1361.86 274.929 1364.31 321.699 1379.83 348.554C1392.85 371.028 1405.84 379.78 1427.45 381.946C1450.31 384.253 1468.9 378.428 1468.9 378.428C1468.9 378.428 1478.49 369.483 1488.75 301.214C1501.53 216.025 1479.96 114.697 1479.96 114.697L1377.74 119.353Z" fill="#8DAFBF"/>
<path d="M1484.66 135.196C1484.66 135.196 1456.35 145.939 1422.81 139.726C1389.51 133.565 1377.74 119.071 1377.74 119.071C1377.74 119.071 1380.67 98.2977 1397.15 61.9027C1408.25 37.4296 1429.21 10.208 1443.02 8.43095C1456.82 6.65394 1472.05 49.673 1472.05 49.673L1493.36 121.338L1484.66 135.196Z" fill="#D83F22"/>
<path d="M1487.22 310.764C1487.22 310.764 1461.36 318.589 1438.22 316.605C1394.49 312.9 1365.07 290.951 1365.07 290.951L1363.72 268.564C1363.72 268.564 1393 293.782 1438.43 296.226C1468.03 297.819 1490.14 290.32 1490.14 290.32C1490.14 290.32 1489.56 295.817 1488.7 301.449C1488.16 305.063 1487.22 310.764 1487.22 310.764Z" fill="#6896A5"/>
<path d="M1511.21 121.853C1511.21 121.853 1509.56 99.2956 1492.23 61.5312C1468.07 8.85175 1444.59 8.43829 1444.59 8.43829C1444.59 8.43829 1458.58 31.0966 1469.57 70.7137C1478.36 102.473 1483.81 135.509 1483.81 135.509C1483.81 135.509 1494.59 131.648 1499.8 128.902C1506.37 125.454 1511.21 121.853 1511.21 121.853Z" fill="#A02422"/>
<path d="M1394.41 350.417C1400.39 350.393 1402.12 342.73 1398.2 332.462C1394.31 322.17 1390.34 318.138 1386.28 318.717C1381.23 319.418 1380.78 328.942 1382.64 335.24C1384.71 342.2 1389.89 350.422 1394.41 350.417Z" fill="#B3E1EE"/>
<path d="M1388.45 127.472C1388.45 127.472 1382.81 158.148 1380.49 194.727C1378.38 228.297 1378.84 252.502 1380.07 257.045C1381.41 261.897 1385.73 266.43 1389.28 267.441C1392.84 268.452 1396.97 266.792 1397.74 262.17C1398.49 257.524 1397.28 217.605 1400.05 185.578C1402.57 156.276 1406.37 135.591 1406.37 135.591C1406.37 135.591 1402.87 121.964 1400.12 120.734C1397.34 119.479 1388.45 127.472 1388.45 127.472Z" fill="#B3E1EE"/>
<path d="M1388.45 127.472C1388.45 127.472 1391.99 104.169 1399.68 82.783C1406.83 62.8929 1414.99 44.1995 1422.14 46.7405C1428.94 49.1571 1419.82 70.1147 1414.65 91.5264C1409.47 112.938 1406.39 135.521 1406.39 135.521C1406.39 135.521 1400.97 133.814 1396.49 131.702C1393.73 130.447 1391.05 129.035 1388.45 127.472Z" fill="#ED6A65"/>
<path d="M1443.69 162.637C1418.49 163.179 1403.08 184.366 1404.44 204.117C1405.87 224.434 1423.13 240.99 1444.2 240.674C1463.34 240.367 1484.18 224.44 1482.82 200.358C1481.64 178.963 1464.29 162.17 1443.69 162.637Z" fill="#E1E1E1"/>
<path d="M1415.52 201.816C1415.08 217.248 1430.36 232.282 1446.6 230.246C1460.78 228.477 1472.19 216.908 1472.31 202.341C1472.43 187.774 1459.3 174.124 1445.64 173.691C1429.95 173.218 1416.03 184.149 1415.52 201.816Z" fill="#3F545F"/>
<path d="M1435.53 344.256C1435.53 344.256 1435.9 314.912 1439.1 314.975C1442.3 315.038 1450.87 324.385 1453.55 341.385C1456.21 358.407 1457.96 391.582 1457.29 415.719C1456.62 439.502 1452.58 469.833 1450.72 471.161C1449.27 472.192 1441.64 474.584 1437.18 474.073C1432.79 473.54 1427.57 456.067 1426.28 449.875C1425.02 443.66 1435.53 344.256 1435.53 344.256Z" fill="#A02524"/>
<path d="M1424.09 470.498C1427.22 474.137 1437.34 474.1 1437.34 474.1L1439.12 314.999C1439.12 314.999 1431.27 314.374 1426.81 331.916C1422.32 349.622 1420.56 367.382 1419.56 395.254C1418.21 434.135 1420.96 466.859 1424.09 470.498Z" fill="#CA2C31"/>
<path d="M1269.18 319.81C1269.08 325.033 1273.06 329.419 1278.39 329.005C1283.13 328.651 1286.06 323.107 1285.78 319.594C1285.49 316.082 1281.2 311.996 1277.03 311.938C1272.84 311.856 1269.27 316.634 1269.18 319.81Z" fill="#FBBC04"/>
<path opacity="0.5" d="M1318.86 266.037C1318.99 270.205 1322.83 272.893 1325.87 272.317C1328.92 271.742 1331.61 268.923 1331.36 265.929C1331.14 263.241 1328.37 260.08 1324.7 260.008C1321.53 259.969 1318.78 263.352 1318.86 266.037Z" fill="#FBBC04"/>
<path d="M1298.91 175.521C1298.91 175.521 1293.81 164.358 1295.45 162.602C1297.11 160.822 1307.75 166.844 1307.75 166.844C1307.75 166.844 1316.5 158.613 1318.3 159.331C1320.61 160.247 1319.58 171.76 1319.58 171.76C1319.58 171.76 1329.46 177.956 1329.45 179.862C1329.41 181.98 1317.82 184.859 1317.82 184.859C1317.82 184.859 1315.29 197.591 1312.22 197.719C1309.56 197.831 1304.26 186.312 1304.26 186.312C1304.26 186.312 1292.01 187.978 1290.99 186.146C1289.55 183.552 1298.91 175.521 1298.91 175.521Z" fill="#FBBC04"/>
<path d="M1590.85 280.056C1595.29 278.872 1598.06 274.455 1596.43 270.068C1595 266.133 1589.59 265.015 1586.69 266.088C1583.8 267.161 1581.36 271.773 1582.3 275.346C1583.24 278.871 1588.17 280.78 1590.85 280.056Z" fill="#FBBC04"/>
<path d="M1564.04 169.682C1559.91 168.706 1555.53 171.304 1555.19 175.604C1554.87 179.788 1558.47 182.424 1561.28 182.809C1564.1 183.193 1568.08 180.518 1568.88 177.214C1569.67 173.911 1566.52 170.248 1564.04 169.682Z" fill="#FBBC04"/>
<defs>
<linearGradient id="paint0_linear_175_1973" x1="1455.47" y1="370.102" x2="1454" y2="793.102" gradientUnits="userSpaceOnUse">
<stop stop-color="#4DAAF5"/>
<stop offset="1" stop-color="#008DFF" stop-opacity="0"/>
</linearGradient>
</defs>
</svg>
